<?xml version="1.0" standalone="no"?>
<!DOCTYPE svg PUBLIC "-//W3C//DTD SVG 1.1//EN" "http://www.w3.org/Graphics/SVG/1.1/DTD/svg11.dtd" >
<svg xmlns="http://www.w3.org/2000/svg">
<metadata></metadata>
<defs>
<font id="apple_casualregular" horiz-adv-x="1024" >
<font-face units-per-em="2048" ascent="1638" descent="-410" />
<missing-glyph horiz-adv-x="1087" />
<glyph unicode="&#x2e;&#x2e;&#x2e;" horiz-adv-x="1396" d="M143 137q0 72 48.5 127t117.5 55q135 0 135 -176q0 -74 -54 -122t-128 -48q-119 0 -119 164zM549 152q0 63 59.5 110t124.5 47q119 1 119 -157q0 -63 -55.5 -124t-118.5 -61q-61 0 -98 64q-31 55 -31 121zM961 154q0 68 65 118q59 47 129 47q131 1 131 -165 q0 -68 -64.5 -120t-134.5 -52q-127 0 -126 172z" />
<glyph unicode="TM" horiz-adv-x="1439" d="M104 1274q0 61 68 80l305 86q12 2 25 2q67 0 67 -72q0 -61 -59 -80l-113 -35v-340q0 -51 -71 -51q-57 0 -58 43v310l-63 -13q-10 -2 -23 -2q-78 0 -78 72zM623 1358q0 31 39 49q33 14 65 14q43 0 61 -22l173 -207q37 49 114 147q66 80 105 80q29 0 47 -47 q75 -203 67 -420q-2 -27 -35.5 -41t-64.5 -14q-61 0 -59 37q6 127 -31 287q-41 -51 -121 -156q-39 -51 -61 -51q-18 0 -56 45q-23 29 -108 137l2 -235q0 -45 -68 -46q-68 0 -67 46z" />
<glyph unicode="&#xfb01;" horiz-adv-x="1216" d="M125 590q0 76 74 106q31 12 92 39v271q-16 160 101.5 276.5t279.5 116.5q184 0 303 -164q25 -35 24 -70q0 -49 -36.5 -83.5t-85.5 -34.5q-55 0 -93 51q-47 68 -129 67q-55 0 -91 -34.5t-38 -90.5v-200q291 129 385 129q104 0 105 -117l2 -778q0 -51 -34 -84t-85 -33 t-84 33t-33 84l-2 604l-254 -103v-610q0 -51 -32.5 -84t-83.5 -33t-85 33t-34 84v514l-4 -2q-20 -10 -47 -10q-49 0 -82 37t-33 86z" />
<glyph unicode="&#xfb02;" horiz-adv-x="1312" d="M74 647q0 76 78 107l69 26v226q-16 160 101.5 276.5t277.5 116.5q154 0 262 -115q35 37 90 37q53 0 85 -33t32 -84v-1138q0 -53 -32.5 -86t-86.5 -33q-51 0 -83.5 33.5t-32.5 85.5v983q-14 -2 -27 -2q-55 0 -94 51q-47 68 -127 67q-55 0 -91 -34.5t-40 -90.5 q2 -10 2 -176l166 62q23 8 43 8q49 0 81.5 -37t32.5 -86q0 -78 -78 -106l-245 -91v-649q0 -51 -32 -84t-85 -33q-51 0 -85 32t-34 85v565q-16 -6 -33 -6q-47 0 -80.5 37t-33.5 86z" />
<glyph horiz-adv-x="0" />
<glyph horiz-adv-x="0" />
<glyph unicode="&#xa;" />
<glyph unicode="&#xd;" />
<glyph unicode=" "  horiz-adv-x="1087" />
<glyph unicode="&#x09;" horiz-adv-x="1087" />
<glyph unicode="&#xa0;" horiz-adv-x="1087" />
<glyph unicode="!" horiz-adv-x="704" d="M242 158q0 59 41 100t100 41t100 -41t41 -100t-41 -100.5t-100 -41.5t-100 41t-41 101zM274 522v762q0 49 33 82t82 33q53 0 90 -34t37 -87q4 -186 4 -375q0 -188 -4 -381q0 -51 -35 -85t-86 -34q-53 0 -87 33t-34 86z" />
<glyph unicode="&#x22;" horiz-adv-x="894" d="M150 1051v229q0 47 30.5 82t77.5 35q49 0 82 -35t33 -84v-229q0 -47 -32 -82t-79 -35q-49 0 -80.5 34.5t-31.5 84.5zM549 1044v230q0 49 30.5 84t79.5 35t80 -35t31 -84v-230q0 -49 -31.5 -82.5t-79.5 -33.5q-47 0 -78.5 33.5t-31.5 82.5z" />
<glyph unicode="#" horiz-adv-x="1601" d="M82 475q0 51 31.5 79t85.5 28l233 4v245l-182 -36q-12 -2 -25 -2q-49 0 -81.5 26.5t-32.5 75.5q0 94 98 113l223 45v114q0 68 49 119t119 51q84 0 84 -82v-165l248 43v114q0 66 53 114t119 48q88 0 88 -88v-143l158 26q12 2 24 2q49 0 82 -34.5t33 -86.5q0 -78 -98 -94 l-199 -35v-362l178 2q53 0 86 -28t33 -81q0 -115 -115 -116l-182 -2v-187q0 -66 -54.5 -114t-119.5 -48q-86 0 -86 89v258l-248 -5v-194q0 -68 -50 -119t-118 -51q-84 0 -84 82v280l-229 -4q-53 0 -87 34t-34 85zM684 588l248 4v319l-248 -41v-282z" />
<glyph unicode="$" horiz-adv-x="1280" d="M188 293q0 49 38 83t87 34q47 0 99 -58q63 -70 102 -96l33 305q-201 113 -264 248q-31 66 -31 127q0 121 102 211q90 80 260 100l17 152q10 92 108 92q53 0 78 -31q35 -45 31 -94l-12 -133q129 -37 237 -127q45 -37 45 -88q0 -41 -30.5 -81t-69.5 -40q-27 0 -105 49 q-43 23 -100 51l-27 -292q347 -169 347 -394q0 -147 -140 -248q-123 -88 -278 -98l-10 -102q-10 -104 -117 -105q-121 0 -107 117l13 117q-168 70 -281 233q-25 35 -25 68zM467 932q0 -76 104 -129l27 237q-41 4 -86 -30.5t-45 -77.5zM737 207q51 6 97 29q59 30 59 73 q0 63 -131 140z" />
<glyph unicode="%" horiz-adv-x="1601" d="M106 1130q0 152 105.5 257.5t257.5 105.5q125 0 222 -76t128 -196l244 -19l168 240q37 51 92 51q49 0 87 -34t38 -83q0 -35 -25 -69l-956 -1360q-37 -51 -94 -51q-47 0 -85 34.5t-38 81.5q0 35 24 70l648 911l-113 13q-51 -117 -141 -176.5t-199 -59.5 q-152 0 -257.5 105.5t-105.5 254.5zM344 1130q0 -51 37 -87.5t88 -36.5t89 36.5t38 87.5t-38 89t-89 38t-88 -37.5t-37 -89.5zM842 346q0 135 95 231.5t230 96.5t231.5 -96.5t96.5 -231.5t-96 -230.5t-232 -95.5q-135 0 -230 95.5t-95 230.5zM1077 346q0 -37 26.5 -63.5 t63.5 -26.5t65 26.5t28 63.5t-28 64.5t-65 27.5t-63.5 -27.5t-26.5 -64.5z" />
<glyph unicode="&#x26;" horiz-adv-x="1312" d="M88 365q0 215 225 340q-96 147 -96 245q0 129 93 228.5t214 99.5q96 0 176 -72q129 -115 129 -237q0 -164 -211 -322q121 -145 234 -254q104 127 166 258q29 61 88 62q43 0 75.5 -30t32.5 -71q0 -24 -12 -47q-74 -160 -194 -305q92 -66 153 -72q92 -8 92 -100 q0 -45 -30.5 -76.5t-81.5 -25.5q-117 12 -275 125q-170 -158 -358 -158q-172 0 -296 125t-124 287zM295 352q0 -76 60.5 -133t150.5 -57q103 0 201 82q-137 129 -271 295q-141 -70 -141 -187zM416 963q0 -45 82 -160q119 80 118 155q0 50 -51 95q-10 8 -33 8q-41 0 -75 -23 q-41 -29 -41 -75z" />
<glyph unicode="'" horiz-adv-x="512" d="M156 1030v250q0 49 31.5 84t80.5 35q47 0 78 -35t31 -82v-250q0 -49 -32 -84t-81 -35q-47 0 -77.5 35t-30.5 82z" />
<glyph unicode="(" horiz-adv-x="737" d="M170 547q0 446 252 770q37 47 90 47q49 0 86 -35t37 -84q0 -35 -29 -71q-201 -258 -200 -623q0 -162 45 -322q55 -201 157 -276q49 -37 49 -92q0 -47 -34.5 -85t-81.5 -38q-37 0 -72 26q-152 115 -231 357q-68 203 -68 426z" />
<glyph unicode=")" horiz-adv-x="737" d="M152 -139q0 55 49 92q100 74 157 276q47 164 48 322q0 362 -203 623q-27 35 -27 71q0 49 37 84t86 35q53 0 90 -47q252 -324 252 -770q0 -221 -68 -426q-82 -244 -231 -357q-35 -27 -72 -26q-47 0 -82.5 38t-35.5 85z" />
<glyph unicode="*" horiz-adv-x="1009" d="M180 868q0 92 172 181q-172 86 -172 200q0 37 23.5 68t60.5 31q80 0 185 -111q-4 92 26 158q39 84 125 78q78 -6 78 -127q0 -57 -21 -125q92 57 168 57t111 -66q8 -16 8 -32q0 -57 -88 -107q-63 -35 -141 -53q82 -82 82 -156q0 -39 -24.5 -71.5t-63.5 -32.5 q-96 0 -195 170q-106 -152 -225 -152q-53 0 -90 43q-18 20 -19 47z" />
<glyph unicode="+" horiz-adv-x="1150" d="M145 518q0 51 33 84t84 33h187v199q0 59 44 103t103 44q88 0 88 -94v-252h186q51 0 85 -33t34 -84q0 -53 -32.5 -86t-86.5 -33l-186 -2v-225q0 -61 -43 -104t-104 -43q-88 0 -88 94v278l-187 2q-117 2 -117 119z" />
<glyph unicode="," horiz-adv-x="608" d="M147 115q2 74 52.5 120t124.5 46q78 0 124 -56.5t46 -136.5q0 -178 -160 -266q-51 -29 -101 -29q-74 0 -73 47q0 18 84 45q-14 25 32 74q-76 12 -103.5 58t-25.5 98z" />
<glyph unicode="-" horiz-adv-x="948" d="M131 551q0 51 33 85t84 34h461q51 0 83.5 -34t32.5 -85t-32.5 -84t-83.5 -33h-461q-51 0 -84 33t-33 84z" />
<glyph unicode="." horiz-adv-x="641" d="M199 197q0 70 50 119t126 49q72 0 122 -49t50 -119q0 -68 -50.5 -116t-121.5 -48q-76 0 -126 48t-50 116z" />
<glyph unicode="/" horiz-adv-x="1054" d="M125 -37q0 29 10 51l596 1362q31 72 105 72q49 0 85.5 -33t36.5 -82q0 -29 -10 -51l-596 -1362q-31 -72 -104 -72q-49 0 -86 33t-37 82z" />
<glyph unicode="0" horiz-adv-x="1054" d="M100 569q0 68 11 125q45 258 178 404.5t297 146.5q35 0 69 -6q240 -43 318 -291q29 -92 28 -229q0 -103 -16 -191q-55 -293 -194 -424q-117 -109 -267 -108q-39 0 -80 6q-217 39 -301 295q-43 127 -43 272zM342 653q-20 -127 14 -252q41 -143 146 -157q182 -24 252 336 q31 152 6 256q-41 170 -180 170q-76 0 -139.5 -82t-98.5 -271z" />
<glyph unicode="1" horiz-adv-x="1054" d="M268 63q0 51 34 84t85 33h37v809q-14 -2 -27 -2q-49 0 -82.5 37t-33.5 86q0 59 53 94q180 117 241 117q84 0 84 -123v-1018h43q51 0 84 -33t33 -84t-32.5 -84.5t-84.5 -33.5h-120q-20 -6 -41 -6q-20 0 -39 6h-115q-51 0 -85 33.5t-34 84.5z" />
<glyph unicode="2" horiz-adv-x="1054" d="M166 82q0 92 182 291q115 137 334 385q45 61 45 133q0 53 -31 88q-27 14 -57 14q-111 0 -254 -170q-35 -43 -88 -43q-47 0 -85 36t-38 83q0 43 31 76q8 8 31 35q201 213 366 215q160 4 261.5 -83t101.5 -245q0 -170 -107 -311l-297 -342h215q14 0 25 2q20 27 82 65 q20 6 41 6q49 0 81.5 -36.5t32.5 -85.5q0 -55 -45 -89q-80 -98 -217 -98h-481q-129 0 -129 74z" />
<glyph unicode="3" horiz-adv-x="1054" d="M88 1044q0 109 176 177q137 53 258 53q141 0 240 -82q102 -88 102 -227q0 -121 -86 -224q209 -98 209 -327q0 -178 -123 -318q-127 -145 -303 -145q-152 0 -301 112q-49 37 -49 93q0 47 35 85t82 38q37 0 71 -27q76 -59 162 -59q90 0 146 69q49 66 45 158 q-8 141 -246 141q-37 0 -70 -4q-59 -6 -101 23.5t-42 87.5q0 84 100 120q231 84 232 164q0 86 -103 86q-135 0 -217 -59q-33 -51 -100 -51q-51 0 -84 32.5t-33 83.5z" />
<glyph unicode="4" horiz-adv-x="1054" d="M113 518q0 63 48 190.5t136 364.5q29 80 106 80q49 0 86 -33t37 -82q0 -20 -8 -43l-139 -387l252 -63l90 590q16 100 115 100q57 0 92 -40t26 -97l-94 -613l72 -22q90 -27 90 -111q0 -53 -35 -88t-80 -35q-20 0 -33 4l-51 19l-30 -199q-16 -100 -115 -100q-57 0 -92 40 t-27 97l35 217q-317 70 -373 90q-109 39 -108 121z" />
<glyph unicode="5" horiz-adv-x="1054" d="M184 870q0 94 50.5 187.5t115.5 126.5q86 45 404 86q57 8 100 -25t43 -90q0 -86 -96 -98q-301 -39 -330 -50.5t-46 -67.5t-17 -116v-22q47 6 92 6q264 0 397 -184q72 -100 72 -217q0 -80 -33 -158q-53 -119 -177 -189.5t-259 -70.5q-109 0 -215 41q-78 31 -78 104 q0 51 33.5 87t87.5 36q18 0 39 -6q84 -27 143 -27q98 0 159.5 57.5t61.5 143.5q0 88 -72 137q-63 41 -155 41q-47 0 -101 -10q-18 -68 -98 -68q-115 0 -115 152q0 33 -3 97.5t-3 96.5z" />
<glyph unicode="6" horiz-adv-x="1054" d="M123 446q0 61 14 134q41 207 158 405q111 197 252 311q37 31 76 31q49 0 83.5 -37t34.5 -86q0 -53 -43 -88q-74 -59 -157.5 -180t-128.5 -229q96 43 204 43q174 0 283 -97q115 -102 115 -270q-1 -215 -142 -330q-111 -92 -268 -92q-205 0 -343 139.5t-138 345.5zM373 358 q25 -74 89 -118.5t140 -44.5q74 0 121 42.5t53 116.5q16 164 -160 164q-53 0 -112 -20q-68 -25 -94.5 -61t-36.5 -79z" />
<glyph unicode="7" horiz-adv-x="1054" d="M78 1034q0 53 33.5 87t87.5 32q311 -8 657 102q18 6 94 0q70 -16 70 -84q0 -33 -19 -73l-4 -13l-14 -36q-18 -43 -467 -1112q-31 -74 -104 -74q-51 0 -87 32.5t-36 81.5q0 25 10 50l391 934q-190 -51 -497 -43q-51 2 -83 33.5t-32 82.5z" />
<glyph unicode="8" horiz-adv-x="1054" d="M131 256q0 145 107 270q37 43 143 121q-156 113 -170 266q-16 170 143 289q143 106 320 107q139 0 222 -76t85 -213q2 -205 -188 -358q186 -131 180 -302q-8 -188 -169 -330.5t-351 -142.5q-137 0 -222 90q-78 82 -96 224q-4 31 -4 55zM367 236q0 -113 96 -113 q92 0 199 98q75 69 75 135q0 68 -149 162q-104 -70 -148 -117q-74 -78 -73 -165zM451 940q0 -61 131 -145q168 133 166 221q0 59 -89 59q-66 0 -131 -35q-78 -41 -77 -100z" />
<glyph unicode="9" horiz-adv-x="1054" d="M111 858q0 143 79 270q111 170 308 170q39 0 80 -6q381 -57 380 -422q0 -374 -352 -952q-41 -66 -110 -57q-49 6 -81 44t-26 87q4 27 17 49q152 260 231 463q-109 -47 -201 -47q-242 0 -307 262q-18 72 -18 139zM313 907q-8 -78 43 -157q39 -59 111 -68q70 -8 155 33.5 t103 107.5q12 102 -20 172q-39 80 -138 92q-88 10 -164.5 -42t-89.5 -138z" />
<glyph unicode=":" horiz-adv-x="671" d="M152 807q0 72 52 121t128 49q74 0 125 -49t51 -121q0 -74 -51 -123t-125 -49q-76 0 -128 49t-52 123zM170 152q0 72 51 119.5t123 47.5t120 -47.5t48 -119.5q0 -68 -48 -117t-120 -49t-123 49t-51 117z" />
<glyph unicode=";" horiz-adv-x="671" d="M201 788q0 68 51 117t125 49q72 0 124 -49t52 -117q0 -70 -52 -117.5t-124 -47.5q-74 0 -125 48t-51 117zM211 162q0 68 51 116t125 48q72 0 123 -48t51 -116q0 -41 -8 -72q-49 -150 -145 -201q-49 -27 -95 -26q-68 0 -67 43q0 31 57 61q8 4 25 37q-117 39 -117 158z" />
<glyph unicode="&#x3c;" horiz-adv-x="962" d="M160 537q0 57 104.5 140t313.5 247q37 29 73 28q49 0 84 -36.5t35 -86.5q0 -55 -45 -90l-246 -194l289 -205q49 -35 49 -94q0 -47 -34.5 -85t-82.5 -38q-37 0 -71 24q-117 82 -350 248q-119 84 -119 142z" />
<glyph unicode="=" horiz-adv-x="1089" d="M209 285q0 51 32.5 83.5t84.5 32.5h462q53 0 86 -31.5t33 -84.5t-32.5 -86t-86.5 -33h-462q-53 0 -85 32.5t-32 86.5zM209 653q0 51 33.5 85t85.5 34h458q51 0 84 -34t33 -85t-32.5 -83.5t-84.5 -32.5h-458q-51 0 -85 32.5t-34 83.5z" />
<glyph unicode="&#x3e;" horiz-adv-x="962" d="M166 246q0 59 49 94l289 205l-246 194q-45 35 -45 90q0 49 35 86t84 37q37 0 74 -28q104 -82 313 -246q104 -84 104 -141t-118.5 -140.5t-352.5 -249.5q-35 -25 -69 -24q-49 0 -83 38t-34 85z" />
<glyph unicode="?" d="M96 942q0 33 19 64q66 109 195.5 188.5t252.5 79.5t209 -86q117 -119 117 -230q0 -109 -111 -221q-70 -70 -225 -176q-57 -39 -78 -59q-4 -10 4 -35q35 -20 113 -29q104 -10 104 -104q0 -53 -40 -84t-95 -31q-84 0 -192 66q-133 80 -133 215q0 86 65 159q23 27 197 150 q150 106 153 143q2 20 -47 72q-16 16 -45 16q-53 0 -133 -54t-111 -103q-35 -57 -96 -58q-49 0 -86 34t-37 83zM317 -27q0 66 45.5 111t110.5 45q66 0 111 -45t45 -111q0 -63 -46 -109t-110 -46q-63 0 -109.5 46t-46.5 109z" />
<glyph unicode="@" horiz-adv-x="1568" d="M139 559q0 281 193 506q203 238 477 238q272 0 455 -142q198 -154 198 -418q0 -168 -73 -278q-84 -129 -244 -127q-4 0 -62 -2h-32q-16 4 -45 14q-80 -61 -97 -71q-53 -31 -116 -31q-262 0 -263 309q0 158 95 283q102 135 256 135q244 0 243 -273q0 -74 -16 -176 q4 -18 29 -18q18 0 47 10q92 72 92 225q0 168 -131 277q-127 100 -297 92q-260 -14 -402 -233q-98 -154 -98 -304q0 -203 133 -339t336 -136q111 0 244 52q59 25 180 73q27 10 53 11q86 0 86 -84q0 -80 -110 -138q-49 -23 -180 -61q-162 -47 -281 -47q-270 0 -470 191.5 t-200 461.5zM715 555q0 -55 18 -96q25 -53 74 -49q106 10 137 182q8 47 8 92q0 125 -73 125q-72 0 -121 -94q-43 -82 -43 -160z" />
<glyph unicode="A" horiz-adv-x="1153" d="M72 131q23 268 82 537q84 375 196 534q-1 10 -1 19q0 42 29 78q36 44 89 44q37 0 65 -18q313 -197 459 -809h17q53 0 84.5 -32t31.5 -85q0 -96 -88 -114q14 -98 21 -224v-6q0 -49 -31 -83q-33 -36 -86 -35q-111 0 -117 111.5t-24 232.5l-328 -2q-53 0 -86 31.5t-33 84.5 q0 51 34 84t85 33l279 4q-88 328 -236 508q-74 -133 -141 -471q-53 -268 -68 -442q-8 -109 -115 -109q-58 0 -90 37q-29 33 -28 80v12z" />
<glyph unicode="B" horiz-adv-x="1056" d="M82 1077q0 59 51 94q213 150 451 150q172 0 286 -59q150 -74 150 -230q0 -211 -232 -368q193 -109 193 -316q0 -203 -252 -311q-180 -76 -393 -76h-31q-115 4 -115 117q0 23 11 45v831q-49 0 -84 37t-35 86zM436 205q309 45 309 143q0 86 -110 129q-80 31 -180 31h-19 v-303zM436 776q96 14 209 80q137 80 137 162q0 67 -192 67h-6q-78 0 -148 -22v-287z" />
<glyph unicode="C" d="M72 545v12q0 377 256 590q197 164 368 164q152 0 252 -201q15 -28 15 -57q0 -47 -38 -81t-85 -34q-68 0 -101 66q-23 45 -43 65q-188 -31 -295 -195q-94 -147 -94 -348q0 -111 37 -207q46 -125 130 -125q6 0 11 1q133 12 238 182q35 57 96 57q49 0 86 -33.5t37 -83.5 q0 -33 -18 -63q-182 -297 -428 -297q-209 0 -326 199q-96 164 -98 389z" />
<glyph unicode="D" horiz-adv-x="1150" d="M66 1065q0 68 63 100q193 100 371 101q262 0 430 -201q160 -191 160 -457q0 -229 -129.5 -395t-352.5 -229q-88 -25 -250 -43q-9 -1 -18 -1q-62 0 -94 50q-31 33 -31 84v872q-18 -4 -35 -4q-49 0 -81.5 37t-32.5 86zM451 190q195 31 286 132q119 129 119 307 q0 166 -100.5 281.5t-263.5 115.5q-20 0 -41 -2v-834z" />
<glyph unicode="E" d="M53 1053q0 94 183 145q2 0 257 47t359 51h6q51 0 83 -30q34 -32 34 -86q0 -111 -115 -117q-123 -6 -454 -74v-244q246 57 292 86q29 16 62 17q49 0 83 -37t34 -86q0 -63 -60 -98q-84 -51 -411 -123v-283q47 -8 96 -8q164 0 272 96q37 33 78 33q47 0 83 -38t36 -85 q0 -49 -41 -86q-176 -156 -426 -156q-139 0 -264 50q-76 31 -76 104q0 18 6 35v303q-100 14 -100 117q0 104 100 116v228q-51 0 -84 35.5t-33 87.5z" />
<glyph unicode="F" horiz-adv-x="927" d="M49 1028q0 76 72 105l45 18q14 10 39 18q401 190 545 191q49 0 81.5 -36t32.5 -85q0 -96 -98 -115q-123 -23 -367 -127q41 -92 58 -194q201 55 245 82q29 16 62 16q49 0 83 -37t34 -86q0 -63 -60 -98q-70 -41 -354 -119v-541q0 -51 -34 -84.5t-85 -33.5t-84 33.5 t-33 84.5v488q-31 -4 -45 -2q-112 6 -112 115q0 55 36 89q32 30 78 29h11q6 0 28 4q-12 88 -45 162q-10 -1 -19 -1q-43 0 -75 31q-39 38 -39 93z" />
<glyph unicode="G" horiz-adv-x="1120" d="M63 608q0 289 181 492q190 215 477 227q14 1 27 1q163 0 213 -93q27 -49 26 -88q0 -61 -65 -94q-31 -16 -62 -17q-66 0 -110 60q-94 0 -206 -61.5t-163 -139.5q-78 -117 -78 -277q0 -137 62 -276q76 -176 194 -176q94 0 221 121v186l-149 -39q-16 -4 -33 -4q-51 0 -83 36 t-32 87q0 88 90 111l357 90q16 4 33 4q51 0 82.5 -36t31.5 -87q0 -70 -61 -100v-293q0 -113 -180 -213q-162 -92 -285 -92q-180 0 -303 153q-184 231 -185 518z" />
<glyph unicode="H" horiz-adv-x="1153" d="M63 578q0 51 33 83.5t84 32.5h31v408q0 61 45 107t106 46q84 0 84 -92v-469h279v449q0 61 45 107t107 46q84 0 84 -92v-510q51 0 82.5 -32.5t31.5 -83.5q0 -115 -114 -119v-316q0 -61 -45.5 -107t-106.5 -46q-84 0 -84 92v377h-279v-357q0 -61 -45 -107t-106 -46 q-84 0 -84 92v418h-31q-53 0 -85 32.5t-32 86.5z" />
<glyph unicode="I" horiz-adv-x="864" d="M78 25q0 51 33.5 84.5t85.5 33.5h84v807l-35 -8q-16 -4 -35 -4q-49 0 -81 36t-32 85q0 88 88 110l402 105q16 4 33 4q51 0 82.5 -39t31.5 -90q0 -90 -88 -109l-131 -28v-819q39 12 49 24q37 41 84 41t85 -37t38 -84q0 -131 -303 -198q-147 -33 -272 -33q-51 0 -85 33.5 t-34 85.5z" />
<glyph unicode="J" horiz-adv-x="993" d="M51 90q0 47 29 86t76 39q72 0 127 -94q6 -12 28 -51q45 -76 129 -76q127 0 127 178v848l-141 -19q-12 -2 -23 -2q-43 0 -68.5 30t-25.5 71q0 88 88 104l471 78q12 2 23 2q43 0 68.5 -29.5t25.5 -70.5q0 -88 -88 -105l-94 -16v-891q0 -162 -111 -291q-117 -135 -276 -135 q-180 0 -301 193q-10 18 -39 69q-25 41 -25 82z" />
<glyph unicode="K" horiz-adv-x="1153" d="M43 594q0 88 88 111q18 4 55 14q10 123 10 238q0 102 -8 196v12q0 47 29 80q33 37 90 37q106 0 115 -108q9 -111 9 -223q0 -64 -3 -128q127 76 358 340q37 41 86 41q47 0 85 -35.5t38 -83.5q0 -41 -32 -77q-233 -266 -371 -361l469 -424q41 -37 41 -86q0 -47 -37 -85 t-84 -38q-43 0 -80 33l-502 457q-29 -209 -90 -492q-20 -94 -112 -94q-49 0 -85 33t-36 82q0 10 4 28q49 223 78 410q-51 0 -83 36t-32 87z" />
<glyph unicode="L" horiz-adv-x="960" d="M80 119q0 66 49 98q78 84 78 184v746q0 51 32.5 84t84.5 33q51 0 84.5 -33t33.5 -84v-746q0 -84 -30 -163h407q51 0 84 -34t33 -85t-33 -84t-84 -33h-622q-51 0 -84 33t-33 84z" />
<glyph unicode="M" horiz-adv-x="1439" d="M102 1122q0 55 25 92q29 45 80 46q66 0 112 -76l359 -578q82 143 248 426q145 240 233 240q55 0 86 -111q72 -258 107 -583q25 -240 25 -439q0 -40 -1 -78q-4 -114 -114 -114h-2q-53 1 -86 35q-31 33 -31 82v6q1 34 1 68q0 303 -63 679l-252 -424q-86 -143 -145 -143 q-51 0 -131 112q-20 31 -215 345l2 -625q0 -53 -32 -86t-85 -33q-51 0 -84 34t-33 85z" />
<glyph unicode="N" horiz-adv-x="1216" d="M141 74l29 1089q4 131 102 131q59 0 109 -65q188 -256 405 -715q96 463 105 719q4 115 117 115q54 0 86 -35q31 -33 30 -82v-6q-16 -500 -192 -1110q-31 -104 -111 -105q-74 0 -110 92q-139 342 -318 662l-18 -698q-2 -51 -34 -83t-83 -32q-53 1 -86 35q-31 33 -31 82v6z " />
<glyph unicode="O" horiz-adv-x="1118" d="M113 512q0 266 108 504q154 334 449 334q223 0 315 -232q57 -143 57 -350q0 -315 -118 -567q-137 -293 -369 -293q-242 0 -358 235q-84 168 -84 369zM373 543q0 -346 123 -375q16 -4 30 -4q104 0 179 170q90 207 90 483q0 233 -93 252q-20 4 -43 4q-147 0 -227 -215 q-59 -160 -59 -315z" />
<glyph unicode="P" d="M29 627q0 47 29.5 82.5t76.5 40.5v364q0 51 33 85q31 32 78 32h6q129 65 286 65h5q160 0 276 -59q150 -76 150 -219q0 -121 -97 -246q-82 -109 -200 -180q-143 -88 -301 -105v-446q0 -51 -33 -85t-84 -34t-84 34t-33 85l-2 469q-106 33 -106 117zM371 727q205 31 317 195 q37 53 37 88q0 65 -115 65h-4q-119 0 -235 -49v-299z" />
<glyph unicode="Q" horiz-adv-x="1120" d="M111 510q0 266 108 504q156 336 451 336q223 0 315 -232q57 -143 57 -350q0 -213 -57 -408q-68 -238 -199 -354q88 -115 195 -149q64 -13 78 -64q-4 -57 -38 -93q-23 -24 -78 -24q-25 0 -58 5q-186 51 -295 227h-35q-242 0 -358 235q-86 166 -86 367zM336 528 q0 -109 29 -235q49 -117 131 -141q-30 87 -30 143q0 98 91 104q12 2 22 2q105 0 109 -180q90 127 108.5 232.5t28.5 281.5q0 301 -116 350l-60 7q-162 0 -258 -232q-55 -170 -55 -332z" />
<glyph unicode="R" horiz-adv-x="1120" d="M18 483q0 113 113 117v227q0 61 44 107.5t106 46.5q86 0 86 -92v-256q229 66 344 209q47 59 47 108q0 84 -109 127q-82 33 -180 33q-143 0 -227 -59q-35 -25 -70 -25q-49 0 -83 38t-34 87q0 55 51 92q152 106 349 107q195 0 356 -101q184 -117 184 -301q0 -129 -100 -254 q-82 -100 -211 -178l324 -293q41 -37 41 -86q0 -47 -37 -85t-84 -38q-43 0 -80 33l-399 365q-41 -12 -82 -23v-295q0 -61 -45.5 -107t-106.5 -46q-84 0 -84 92v334q-49 2 -81 34.5t-32 81.5z" />
<glyph unicode="S" horiz-adv-x="1089" d="M49 311q0 90 117 90q66 0 96 -32q145 -156 322 -156q63 0 112 25q63 33 64 90q0 115 -236 211q-374 152 -374 404q0 159 143 259q127 88 293 88q184 0 366 -108q60 -36 60 -97q0 -49 -34 -85.5t-83 -36.5q-31 0 -61 18q-123 72 -254 72q-66 0 -119 -21q-72 -31 -72 -86 q0 -98 225 -190q379 -156 379 -443q0 -158 -121 -256q-111 -92 -272 -92q-74 0 -145 19q-111 29 -217 92q-125 76 -168 162q-20 41 -21 73z" />
<glyph unicode="T" horiz-adv-x="1054" d="M59 1024q0 84 88 109l730 200q23 6 34 6q51 0 83 -35.5t32 -86.5q0 -84 -88 -109l-301 -84v-963q0 -51 -34 -83.5t-85 -32.5t-84 32.5t-33 83.5v897l-192 -51q-23 -6 -35 -6q-51 0 -83 36t-32 87z" />
<glyph unicode="U" horiz-adv-x="1056" d="M100 524q0 176 54 381q43 168 106 291q33 66 100 66q53 0 88 -34t35 -83q0 -29 -14 -55q-133 -262 -133 -525q0 -117 33 -221q45 -147 137 -147q121 0 190 239q42 148 54 330q8 123 8 213q0 43 -2 78v6q0 49 32 82q34 35 89 35q137 0 137 -103v-6q-14 -332 -27 -436 q-37 -297 -131 -459q-125 -213 -356 -213q-125 0 -226 94q-88 82 -135 211q-39 109 -39 256z" />
<glyph unicode="V" horiz-adv-x="991" d="M66 1171q0 49 35.5 82t84.5 33q94 0 113 -96l141 -723q217 477 379 727q37 55 94 55q49 0 86 -33.5t37 -82.5q0 -35 -20 -66q-104 -164 -264 -492q-147 -303 -238 -534q-17 -93 -111 -93q-8 0 -16 1q-45 4 -76.5 35.5t-31.5 76.5l-209 1084q-4 14 -4 26z" />
<glyph unicode="W" horiz-adv-x="1599" d="M82 1133q0 49 37 82.5t86 33.5q61 0 96 -55q145 -227 238 -754q66 205 98 486q14 125 106 125q63 0 111 -76l346 -559q53 309 88 749q8 109 115 109q57 0 90 -37q29 -33 29 -80v-12q-68 -793 -156 -1073q-33 -102 -90 -103q-88 0 -227 228q-76 129 -230 387 q-86 -401 -266 -615q-51 -59 -107 -59q-49 0 -77 45q-23 37 -23 90q0 193 -76 528q-78 348 -170 494q-18 29 -18 66z" />
<glyph unicode="X" horiz-adv-x="1214" d="M76 61q0 39 30 76q172 205 406 531q-242 324 -346 385q-59 35 -60 98q0 49 34 86t83 37q33 0 62 -17q125 -72 368 -387q152 227 244 387q35 61 98 62q49 0 86 -34t37 -83q0 -31 -16 -59q-109 -195 -301 -473q338 -482 338 -617q0 -49 -36 -81.5t-85 -32.5q-61 0 -197 229 q-82 147 -166 297q-213 -293 -368 -479q-37 -43 -88 -43q-47 0 -85 35.5t-38 82.5z" />
<glyph unicode="Y" horiz-adv-x="1087" d="M57 1143q0 49 36 81.5t85 32.5q92 0 113 -94q29 -141 78 -215q39 -57 133 -123q221 285 282 404q33 65 99 65h2q49 0 86 -32.5t37 -81.5q0 -29 -15 -58q-80 -160 -356 -506l-2 -546q0 -51 -33 -84t-84 -33t-84 32.5t-33 84.5v538q-102 68 -147 113q-139 143 -193 393 q-4 18 -4 29z" />
<glyph unicode="Z" horiz-adv-x="1216" d="M106 143q4 35 21 58l78 176q49 98 96 166q143 201 426 422q-332 25 -461 106q-57 37 -57 96q0 49 35 86t84 37q33 0 65 -20q117 -76 662 -82q11 2 21 2q31 0 60 -18q38 -24 50 -68q5 -17 5 -35q-1 -25 -11 -49q-18 -41 -58 -57q-555 -381 -710 -695q43 -4 143 -28 q92 -25 145 -25q170 29 248 82q32 22 65 22h3q49 0 84 -36.5t35 -85.5q0 -57 -54 -95q-233 -129 -372 -129q-63 0 -158 27q-131 37 -182 37q-43 0 -88 -12q-23 -12 -58 -13q-51 0 -87 40q-31 34 -31 77q0 7 1 14z" />
<glyph unicode="[" horiz-adv-x="811" d="M182 14v1213q0 86 148 139l184 45q25 6 39 6q49 0 81 -37t32 -86q0 -82 -86 -108l-162 -49v-1045l137 -61q72 -33 72 -105q0 -49 -33 -86t-82 -37q-27 0 -51 13q-53 20 -158 63q-121 57 -121 135z" />
<glyph unicode="\" horiz-adv-x="978" d="M80 1327q0 49 37 82t86 33q74 0 104 -72l596 -1347q10 -25 10 -52q0 -49 -35.5 -81.5t-86.5 -32.5q-72 0 -105 71l-596 1348q-10 23 -10 51z" />
<glyph unicode="]" horiz-adv-x="811" d="M109 1294q0 49 31.5 86t80.5 37q12 0 37 -6l184 -45q150 -53 150 -139v-1213q0 -78 -121 -135q-53 -20 -158 -63q-31 -12 -51 -13q-49 0 -82 37t-33 86q0 72 72 105l137 61v1045l-163 49q-84 25 -84 108z" />
<glyph unicode="^" horiz-adv-x="894" d="M98 1139q0 39 27 71q139 176 199 234q78 76 135 76t131 -80q53 -59 180 -234q25 -34 25 -69q0 -49 -38 -84t-87 -35q-55 0 -90 51l-127 184l-144 -188q-35 -47 -88 -47q-49 0 -86 36t-37 85z" />
<glyph unicode="_" horiz-adv-x="1536" d="M154 -127q0 51 32.5 84t83.5 33h1055q51 0 85 -33t34 -84q0 -53 -33 -86t-86 -33h-1055q-53 0 -84.5 33t-31.5 86z" />
<glyph unicode="`" horiz-adv-x="546" d="M51 1249q0 43 34 76t75 33q100 0 229 -131q123 -125 123 -203q0 -41 -63 -37q-137 12 -283 119q-115 84 -115 143z" />
<glyph unicode="a" horiz-adv-x="1087" d="M94 360q0 233 170 427t402 194q61 0 98 -14q119 0 119 -115l-2 -224q0 -288 18 -329q35 -82 92 -154q27 -32 27 -71q0 -49 -37 -86t-86 -37q-55 0 -88 47q-18 29 -62 88q-113 -123 -274 -123q-164 0 -270.5 116t-106.5 281zM326 360q0 -149 159 -149h2q31 0 68 6 q12 12 61 82q19 25 39 37q-2 27 -6 242q-2 141 -2 167q-123 -12 -222 -136t-99 -249z" />
<glyph unicode="b" horiz-adv-x="1120" d="M94 78q0 70 80 155v1029q0 51 33 83.5t84 32.5t85 -32.5t34 -83.5v-394q139 109 284 109q301 0 301 -469q0 -217 -112 -350q-121 -141 -332 -142q-121 0 -209 52q-80 -90 -137 -91q-47 0 -79 28t-32 73zM410 266q72 -12 122 -12q228 0 228 254q0 80 -27 139 q-35 80 -104 80q-94 0 -187 -137q-16 -25 -32 -43v-281z" />
<glyph unicode="c" horiz-adv-x="960" d="M86 412q0 174 102 346q131 221 328 221q92 0 203 -64q127 -71 127 -157q0 -49 -37 -85t-86 -36q-51 0 -88 45q-51 63 -107 63q-92 0 -151 -141q-47 -113 -47 -219q0 -154 88 -186q33 -12 61 -13q61 0 107 60q37 49 90 49q47 0 85 -36t38 -83q0 -37 -27 -72 q-122 -157 -285 -157h-2q-174 0 -290 147q-109 139 -109 318z" />
<glyph unicode="d" d="M74 426v19q0 211 128 345q134 140 355 140q53 0 102 -10v350q0 51 34 85t85 34t84 -34t33 -85v-1028q80 -86 80 -156q0 -45 -33 -72.5t-78 -27.5q-63 0 -151 104q-123 -90 -277 -90q-178 0 -272 127q-86 113 -90 299zM305 432q0 -74 31 -127q35 -68 102 -72h11 q58 0 118 37q47 31 56 47q16 35 36 58v284q-20 8 -38 27q-33 12 -69 12q-51 0 -108 -24q-66 -29 -102.5 -97.5t-36.5 -144.5z" />
<glyph unicode="e" horiz-adv-x="958" d="M127 471q0 162 82 295q66 109 190.5 186.5t247.5 77.5q113 0 181.5 -69.5t68.5 -182.5q0 -88 -47 -176q-51 -96 -166 -173t-231 -91q-20 -3 -36 -3q-33 0 -52 11q37 -139 129 -139q82 0 194 100q35 31 78 31q39 0 72.5 -35t33.5 -82q0 -49 -41 -86q-166 -147 -323 -147 q-172 0 -283 159q-98 143 -98 324zM360 553q16 -12 56 -23q98 8 170 54q47 29 80 86q28 51 28 90q0 43 -65 43q-35 0 -60 -10q-182 -80 -209 -240z" />
<glyph unicode="f" horiz-adv-x="823" d="M86 631q0 78 76 106l47 19v295q0 154 65 245q76 106 222 107q150 0 309 -117q49 -37 49 -90q0 -49 -34 -86t-83 -37q-39 0 -71 25q-102 76 -154 76q-68 0 -68 -123v-201l119 47q27 10 47 10q49 0 82 -38t33 -87q0 -74 -76 -104l-205 -82v-586q0 -51 -33.5 -83.5 t-84.5 -32.5t-84 32.5t-33 83.5v498h-5q-48 0 -82 35q-36 37 -36 88z" />
<glyph unicode="g" horiz-adv-x="1054" d="M104 639q0 164 95 283q102 129 262 129q129 0 270 -90q27 73 109 73h2q53 0 84.5 -31.5t31.5 -84.5v-830q0 -35 -18 -149q-12 -76 -135 -168q-135 -102 -283 -103q-215 0 -366 232q-20 31 -21 65q0 49 37 84t86 35q61 0 96 -55q78 -119 187 -119q57 0 118 35q49 27 50 35 q14 84 14 118v152q-109 -53 -215 -53q-94 0 -174 45q-229 131 -230 397zM352 641q0 -80 41 -133q47 -61 123 -62q92 0 207 84l-8 166q-127 121 -223 121q-68 0 -105 -57q-35 -49 -35 -119z" />
<glyph unicode="h" horiz-adv-x="1120" d="M154 127v1188q0 66 48 117t111 51q76 0 76 -86v-633q158 199 307 199q133 0 232 -125q90 -115 94 -250q2 -44 2 -88q0 -253 -70 -463q-25 -78 -106 -78q-49 0 -85 33t-36 78q0 20 6 51q50 191 50 403q0 36 -1 72q-4 149 -111 149h-1q-100 0 -281 -350v-268 q0 -53 -32.5 -85t-86.5 -32q-51 0 -83.5 33t-32.5 84z" />
<glyph unicode="i" horiz-adv-x="575" d="M178 1260q0 57 40 97t97 40t97.5 -40t40.5 -97t-40 -97.5t-98 -40.5q-57 0 -97 40t-40 98zM195 29v755q0 66 55 126.5t119 60.5q10 2 18 2q46 0 64 -55q3 -194 3 -383t-3 -373q-2 -78 -74 -152q-59 -57 -117 -57q-66 0 -65 76z" />
<glyph unicode="j" horiz-adv-x="864" d="M145 -207q0 49 37 84t86 35q37 0 82 -68q37 -53 84 -53q72 0 72 131v819q0 51 33.5 84t85.5 33q53 0 84.5 -32.5t31.5 -86.5v-817q0 -133 -88 -246q-95 -120 -223 -120h-2q-147 0 -262 170q-20 31 -21 67zM487 1130q0 55 39 93.5t95 38.5q55 0 94 -39.5t39 -92.5 q0 -55 -39 -94t-94 -39t-94.5 39t-39.5 94z" />
<glyph unicode="k" horiz-adv-x="1056" d="M164 66v1187q0 51 32.5 84t84.5 33q51 0 84.5 -32.5t33.5 -84.5v-542l7 -6q98 68 286 282q37 41 86 41t86 -36t37 -83q0 -41 -33 -78q-180 -207 -284 -288l354 -320q41 -37 41 -86q0 -47 -37 -85t-84 -38q-43 0 -80 33l-379 346v-327q0 -51 -33.5 -85t-84.5 -34t-84 33.5 t-33 85.5z" />
<glyph unicode="l" horiz-adv-x="638" d="M193 72l2 1177q0 51 32.5 84t83.5 33t85 -33t34 -84l-2 -1102q129 -57 129 -151q0 -45 -30.5 -75t-75.5 -30q-29 0 -56 13q-111 49 -123 57q-80 49 -79 111z" />
<glyph unicode="m" horiz-adv-x="1472" d="M170 106v742q0 51 33 84t84 33q20 0 108 -70q72 45 117 45q139 0 256 -127q121 176 291 176q131 0 207 -92q70 -86 69 -225v-557q0 -51 -32.5 -85t-85.5 -34q-51 0 -84 33.5t-33 85.5v565q0 86 -78 86q-59 0 -107 -90q-39 -76 -38 -144v-368q0 -51 -33 -85t-86 -34 q-51 0 -84 34t-33 85v401q0 49 -46 97q-40 41 -82 41q-6 0 -13 -1q-33 -4 -63.5 -37.5t-30.5 -66.5v-492q0 -51 -33 -84.5t-86 -33.5q-51 0 -84 33.5t-33 84.5z" />
<glyph unicode="n" d="M154 106v682q0 51 32.5 84t83.5 33q53 0 86 -31.5t33 -85.5v-26q127 139 279 139q121 0 182 -98q51 -84 51 -211v-498q0 -51 -33.5 -85t-85.5 -34q-51 0 -83.5 34t-32.5 85v498q0 74 -76 74h-4q-94 0 -150 -103q-47 -88 -47 -192l2 -265q0 -53 -32.5 -84.5t-86.5 -31.5 q-53 0 -85.5 31.5t-32.5 84.5z" />
<glyph unicode="o" horiz-adv-x="991" d="M113 389q0 215 108 393q127 209 328 209q37 0 76 -8q147 -31 223 -162q67 -112 67 -274q0 -215 -108 -395q-125 -209 -328 -209q-37 0 -76 8q-147 31 -223 162q-68 115 -67 276zM346 399q0 -61 25 -127q31 -80 82 -90q8 -2 16 -2q44 0 96 47q78 70 107 207q10 50 10 103 q0 61 -25 127q-31 80 -82 90q-10 2 -20 2q-65 0 -125 -88q-55 -80 -74 -166q-10 -49 -10 -103z" />
<glyph unicode="p" d="M121 -332v1237q0 51 31.5 85t83.5 34h4q89 0 110 -82q111 88 223 88q160 0 265 -149q94 -135 94 -301q0 -231 -176 -367q-156 -119 -400 -139v-406q0 -51 -33.5 -84t-84.5 -33t-84 33t-33 84zM356 311q342 34 342 301v15q-2 57 -36.5 104t-90.5 47q-102 0 -215 -166v-301 z" />
<glyph unicode="q" horiz-adv-x="1089" d="M80 535q0 195 111.5 332t263.5 137q29 0 57 -7q74 -14 150 -82q0 51 32.5 84t85.5 33q51 0 84 -32.5t33 -84.5l-8 -639q0 -90 47 -536q35 20 70 20q41 0 68.5 -29.5t27.5 -68.5q0 -53 -49 -85t-97 -64q-90 -59 -122 -60q-68 0 -103 62q-20 174 -33 282q-14 141 -30 287 q-111 -88 -224 -88q-150 0 -254 137q-72 94 -104 313q-6 43 -6 89zM307 416q37 -176 150 -176q100 0 205 153v279q-49 61 -156 96q-10 2 -27 2q-66 0 -117 -49q-67 -67 -67 -187q0 -57 12 -118z" />
<glyph unicode="r" horiz-adv-x="864" d="M106 815q0 109 91 109q43 0 153 -62q139 113 246 113q100 0 182 -96q43 -52 43 -103q0 -47 -33.5 -82t-80.5 -35q-72 0 -105 82q-102 -10 -153 -73q-20 -37 -39 -74v-537q0 -51 -34 -83.5t-85 -32.5t-84 32.5t-33 83.5v633q-68 29 -68 125z" />
<glyph unicode="s" horiz-adv-x="862" d="M74 197q0 94 92 106q7 1 14 1q69 0 137 -93q49 -68 140 -68q90 0 102 70q1 6 1 11q0 63 -101 138q-10 8 -168 105q-197 119 -197 264q0 129 107 211q98 76 231 76q129 0 252 -72q57 -33 57 -100q0 -100 -106 -101q-16 0 -95 32t-137 32q-84 0 -84 -78q0 -74 164 -141 q295 -119 295 -359q0 -147 -112 -235q-82 -63 -189 -64q-49 0 -104 15q-150 37 -273 174q-27 31 -26 76z" />
<glyph unicode="t" horiz-adv-x="800" d="M70 631q0 78 75 106l117 45v336q0 61 44 107.5t106 46.5q86 0 86 -92v-308l77 31q20 8 48 8q49 0 81.5 -37t32.5 -86q0 -78 -78 -106l-161 -61v-596q0 -51 -34 -85t-85 -34t-84 33.5t-33 85.5v505l-33 -12q-29 -10 -47 -10q-49 0 -80.5 37t-31.5 86z" />
<glyph unicode="u" d="M90 379q0 203 117 483q31 74 104 74q49 0 86 -33t37 -82q0 -25 -10 -49q-98 -238 -98 -393q0 -39 8 -66q29 -94 96 -94q78 0 168 109q-4 35 -4 73q0 152 88 449q25 84 109 84q51 0 86.5 -32t35.5 -83q0 -18 -6 -39q-80 -260 -80 -366q0 -154 99 -232q45 -37 45 -90 q0 -49 -35 -86t-84 -37q-76 0 -166 125q-131 -104 -274 -104q-225 0 -303 254q-18 59 -19 135z" />
<glyph unicode="v" horiz-adv-x="991" d="M61 786q4 49 43 81q35 28 78 28h11q57 -4 90 -61q100 -184 213 -455q102 242 178 487q27 84 108 84h11q51 -4 83 -39q29 -31 29 -73v-11q0 -14 -6 -30q-154 -492 -313 -777q-43 -76 -104 -76q-5 0 -11 1q-70 4 -100 96q-129 379 -293 680q-18 33 -17 65z" />
<glyph unicode="w" horiz-adv-x="1441" d="M102 727q0 23 4 84q8 111 117 111q55 0 88 -36q29 -32 29 -79v-12q-2 -31 -2 -68q0 -184 57 -383l271 483q43 78 108 78q80 0 109 -106q55 -213 143 -439q37 78 137 408q27 84 109 84q51 0 87 -32t36 -83q0 -18 -6 -39q-84 -272 -111 -344q-70 -184 -172 -315 q-43 -55 -86 -55q-92 0 -189 221q-27 59 -96 266l-141 -276q-139 -262 -234 -263q-51 0 -92 82q-166 340 -166 713z" />
<glyph unicode="x" d="M76 35q0 31 18 61q109 186 299 410q-137 174 -239 274q-39 37 -39 82q0 49 35.5 86t85.5 37q45 0 81 -37q109 -106 236 -262q98 106 190 195q36 34 80 34h2q49 0 85 -36.5t36 -85.5q0 -47 -39 -84q-109 -100 -209 -213q182 -248 279 -426q16 -31 16 -62 q0 -49 -36.5 -81.5t-86.5 -32.5q-66 0 -98 61q-78 141 -233 358q-158 -190 -244 -336q-35 -59 -96 -59q-49 0 -86 34t-37 83z" />
<glyph unicode="y" d="M84 762q0 51 36 83t87 32q88 0 110 -91q33 -137 82.5 -211.5t161.5 -162.5q111 299 154 516q18 96 112 96q49 0 85 -33t36 -82q0 -6 -4 -26q-59 -295 -213 -688q-119 -301 -244 -547q-33 -66 -100 -66q-49 0 -86 33t-37 82q0 29 15 57q98 190 194 428q-172 127 -246 228 q-90 119 -139 319q-4 16 -4 33z" />
<glyph unicode="z" horiz-adv-x="991" d="M84 123q0 37 22 76q104 178 404 538q-168 -27 -254 -57q-23 -8 -43 -8q-49 0 -82 36.5t-33 86.5q0 80 80 106q233 80 613 105q8 1 15 1q46 1 82 -21q42 -24 42 -79q0 -49 -45 -98q-233 -254 -467 -571q270 -39 461 -136q65 -32 65 -100q0 -49 -32.5 -86t-82.5 -37 q-29 0 -57 15q-109 53 -293 92q-135 31 -274 37q-121 6 -121 100z" />
<glyph unicode="{" horiz-adv-x="864" d="M113 578q0 63 92 139q88 68 176 133q-129 164 -129 354q0 137 84 226.5t209 89.5q43 0 96 -11q94 -18 94 -112q0 -109 -106 -109h-33q-23 2 -33 2q-96 0 -96 -94q0 -59 96 -199.5t96 -185.5q0 -55 -137 -127t-137 -115q0 -14 133 -99t133 -142q0 -25 -54 -129.5 t-54 -210.5q0 -68 90 -94.5t90 -102.5q0 -53 -35 -87t-86 -34q-115 0 -200 89t-85 204q0 227 60 336q-84 66 -168 133q-96 88 -96 146z" />
<glyph unicode="|" horiz-adv-x="454" d="M98 -94v1390q0 68 53.5 127.5t120.5 59.5q74 14 82 -62q6 -708 0 -1390q0 -68 -62.5 -134.5t-129.5 -66.5q-63 0 -64 76z" />
<glyph unicode="}" horiz-adv-x="864" d="M182 1397q0 -109 107 -109h33q23 2 32 2q96 0 97 -94q0 -59 -96.5 -199.5t-96.5 -185.5q0 -55 137 -127t137 -115q0 -14 -133 -99t-133 -142q0 -25 54.5 -129.5t54.5 -210.5q0 -68 -90 -94.5t-90 -102.5q0 -53 34.5 -87t85.5 -34q115 0 200 89t85 204q0 227 -59 336 q84 66 168 133q96 88 96 146q0 63 -92 139q-88 68 -176 133q129 164 129 354q0 137 -84 226.5t-209 89.5q-43 0 -97 -11q-94 -18 -94 -112z" />
<glyph unicode="~" horiz-adv-x="1183" d="M113 1034q0 51 43 88q176 150 315 150q72 0 179.5 -61.5t140.5 -61.5q61 0 124 80q37 47 91 47q49 0 85.5 -35t36.5 -84q0 -39 -26 -74q-139 -176 -287 -176q-76 0 -199.5 62.5t-154.5 62.5q-43 0 -152 -90q-35 -29 -78 -29q-47 0 -82.5 37t-35.5 84z" />
<glyph unicode="&#xa1;" horiz-adv-x="671" d="M193 991q0 59 40.5 100.5t100.5 41.5q57 0 99 -42.5t42 -99.5q0 -59 -41 -100t-100 -41t-100 41t-41 100zM225 -147q-6 373 0 755q0 51 34 84t87 33t87 -33t34 -86l-2 -762q0 -51 -32 -81.5t-83 -30.5q-53 0 -89 33.5t-36 87.5z" />
<glyph unicode="&#xa2;" horiz-adv-x="1056" d="M158 537q0 133 102 262q96 121 225 176v143q0 57 40 104.5t98 47.5q78 0 77 -90v-166q96 -10 160 -70q35 -33 35 -74t-32 -73.5t-72 -32.5q-39 0 -70 31q-10 8 -21 12v-391q49 23 68 47q35 43 80 43q41 0 73.5 -31t32.5 -72q0 -35 -22 -63q-76 -98 -232 -141v-133 q0 -51 -29.5 -85t-78.5 -34t-78 34.5t-29 84.5v118q-131 23 -229 123.5t-98 229.5zM365 532q-1 -90 120 -137v338q-121 -100 -120 -201z" />
<glyph unicode="&#xa3;" horiz-adv-x="1312" d="M190 41q0 39 29 70q127 135 246 415l-94 -4q-49 -2 -78 29t-29 74q0 98 96 102l191 8q78 203 117 285q66 139 131 203q59 59 223 82q53 8 88 -27q29 -31 29 -76q0 -88 -88 -100q-43 -2 -103 -19q-70 -66 -178 -335l178 8q51 2 80 -29t29 -74q0 -98 -99 -102l-272 -12 q-39 -100 -129 -295q213 -115 305 -115q94 0 148 82v-2q10 88 102 88q41 0 71.5 -26.5t30.5 -75.5q0 -92 -131 -201q-96 -78 -217 -78q-94 0 -215 49q-59 25 -207 98q-90 -127 -147 -126q-43 0 -75 31.5t-32 72.5z" />
<glyph unicode="&#xa5;" horiz-adv-x="1120" d="M129 1147q0 51 35 83t86 32q92 0 112 -95q27 -129 66 -194q45 -76 145 -144q221 281 281 404q33 66 102 65q47 0 85 -33.5t38 -80.5q0 -29 -14 -58q-80 -160 -356 -505v-11l168 52q27 8 47 8q90 0 90 -82q0 -74 -94 -103l-211 -63l-2 -66l161 50q27 8 45 8q92 0 93 -82 q0 -74 -95 -103l-204 -61v-197q0 -53 -33 -84.5t-86 -31.5q-51 0 -84 32.5t-33 83.5v123l-123 -37q-27 -8 -47 -8q-90 0 -90 82q0 74 92 102l168 52v63l-115 -35q-27 -8 -47 -8q-90 0 -90 82q0 74 92 102l162 50v73q-106 68 -149 113q-70 74 -131 197q-63 133 -64 225z" />
<glyph unicode="&#xa7;" horiz-adv-x="1118" d="M201 463q0 154 200 258q-125 94 -125 215q0 231 404 350q20 6 39 6q49 0 80.5 -36.5t31.5 -86.5q0 -86 -83 -110q-195 -57 -236 -123q27 -39 164 -113q147 -78 201 -139q77 -90 77 -184q0 -168 -200 -269q150 -123 149 -266q0 -133 -115 -215q-104 -76 -241 -76 q-70 0 -137 19q-86 25 -86 104q0 47 33.5 81t80.5 34q18 0 39 -4q37 -12 94 -12q96 0 97 61q0 66 -142 141q-326 176 -325 365zM449 479q0 -57 122 -135q158 70 146 164q-6 37 -105 90q-164 -51 -163 -119z" />
<glyph unicode="&#xa8;" horiz-adv-x="993" d="M92 1386q0 55 63.5 103.5t123.5 48.5q57 0 97 -39t40 -94t-63.5 -103.5t-123.5 -48.5q-57 0 -97 39t-40 94zM557 1405q0 53 61.5 100t118.5 47q55 0 94 -38t39 -91q0 -55 -60 -102t-118 -47q-55 0 -95 38t-40 93z" />
<glyph unicode="&#xa9;" horiz-adv-x="1662" d="M137 606q0 295 206 502t501 207t501.5 -207t206.5 -502t-206.5 -501.5t-501.5 -206.5t-501 206.5t-206 501.5zM352 606q0 -205 143.5 -348t348.5 -143t349 143t144 348t-144 349.5t-349 144.5t-348.5 -144.5t-143.5 -349.5zM532 569q-2 238 160 371q121 100 232 100 q100 0 163 -131q11 -21 11 -41q0 -37 -28 -62.5t-64 -25.5q-37 0 -56.5 25.5t-38.5 50.5q-96 -20 -151 -111q-47 -80 -47 -186q0 -55 16 -106q23 -70 66 -66q53 4 103 71.5t95 67.5q37 0 64.5 -25.5t27.5 -62.5q0 -29 -12 -49q-115 -184 -270 -184q-131 0 -205 123 q-66 104 -66 241z" />
<glyph unicode="&#xaa;" d="M156 895q0 166 123.5 306t287.5 140q45 0 72 -10q86 0 84 -86q-4 -356 12 -393q6 -20 49 -86q37 -58 37 -78q0 -35 -27.5 -61.5t-62.5 -26.5q-33 0 -58.5 33t-47.5 63q-80 -86 -197 -86q-119 0 -195.5 83t-76.5 202zM170 387q0 94 94 94h500q94 0 94 -94t-94 -94h-500 q-94 0 -94 94zM344 895q0 -86 94 -86q18 0 39 2q19 29 62 76q-4 70 -7 260q-72 -16 -130 -97t-58 -155z" />
<glyph unicode="&#xab;" horiz-adv-x="1310" d="M135 537q0 86 141 217q86 76 259 229q39 35 79 35q49 0 85 -36t36 -85t-37 -84l-276 -266l235 -217q55 -33 56 -103q0 -51 -33 -84.5t-84 -33.5q-55 6 -96 45l-39 36q-72 66 -291 269q-35 33 -35 78zM637 547q0 49 90 131q117 106 264 235q35 31 80 31q47 0 83 -37 t36 -84q0 -49 -41 -86l-207 -184l193 -147q47 -37 47 -93q0 -47 -36 -83.5t-83 -36.5q-37 0 -72 26q-90 68 -266 205q-88 70 -88 123z" />
<glyph unicode="&#xac;" horiz-adv-x="1089" d="M117 614q0 51 32.5 85t83.5 34h603q47 0 82.5 -35.5t35.5 -83.5v-358q0 -51 -33.5 -84t-84.5 -33t-84 33t-33 84v242h-486q-51 0 -83.5 32.5t-32.5 83.5z" />
<glyph unicode="&#xad;" horiz-adv-x="948" d="M131 551q0 51 33 85t84 34h461q51 0 83.5 -34t32.5 -85t-32.5 -84t-83.5 -33h-461q-51 0 -84 33t-33 84z" />
<glyph unicode="&#xae;" horiz-adv-x="1566" d="M104 606q0 295 206 502t501 207t502 -207t207 -502t-207 -501.5t-502 -206.5t-501 206.5t-206 501.5zM319 606q0 -205 143.5 -348t348.5 -143t349.5 143t144.5 348t-144.5 349.5t-349.5 144.5t-348.5 -144.5t-143.5 -349.5zM500 510q0 72 61 86v123q0 43 32 74.5t75 31.5 q70 0 69 -71v-129q61 20 113 57q70 47 70 94q0 37 -56 58q-41 14 -88 14q-55 0 -102 -23.5t-68 -23.5q-37 0 -62.5 26.5t-25.5 63.5q0 66 98 104q76 29 152 29q121 0 219 -61q111 -72 111 -189q0 -135 -166 -248q53 -45 106 -88q88 -80 88 -125q0 -37 -25.5 -63.5 t-62.5 -26.5q-33 0 -59 25l-221 198l-21 -6v-151q0 -43 -31.5 -76t-74.5 -33q-70 0 -70 74v170q-61 14 -61 86zM1405 213q0 4 4 4t4 -4t-4 -4t-4 4z" />
<glyph unicode="&#xaf;" horiz-adv-x="1056" d="M119 1243q0 51 33.5 80t85.5 29h604q51 0 83.5 -29t32.5 -80q0 -53 -31.5 -78.5t-84.5 -25.5h-604q-53 0 -86 25.5t-33 78.5z" />
<glyph unicode="&#xb0;" horiz-adv-x="735" d="M150 1141q0 96 66.5 163.5t162.5 67.5t163.5 -67.5t67.5 -163.5t-67.5 -163t-163.5 -67t-162.5 66.5t-66.5 163.5zM291 1141q0 -37 25.5 -62.5t62.5 -25.5t63.5 25.5t26.5 62.5t-26.5 63.5t-63.5 26.5t-62.5 -26.5t-25.5 -63.5z" />
<glyph unicode="&#xb1;" horiz-adv-x="1120" d="M147 90q0 51 34 84t85 33h625q51 0 84 -33t33 -84q0 -53 -32 -86t-85 -33h-625q-53 0 -86 33t-33 86zM164 754q0 53 32.5 85.5t86.5 32.5h178v201q0 59 43 103.5t102 44.5q90 0 90 -95v-254h195q53 0 85 -32.5t32 -85.5q0 -51 -33 -84t-84 -33h-195v-225 q0 -59 -44 -104.5t-103 -45.5q-88 0 -88 96v279h-178q-51 0 -85 32.5t-34 84.5z" />
<glyph unicode="&#xb4;" horiz-adv-x="671" d="M145 1024q0 88 132.5 211t222.5 123q42 0 71 -33q39 -43 39 -78q0 -53 -106 -129q-158 -117 -277 -131q-82 -10 -82 37z" />
<glyph unicode="&#xb6;" horiz-adv-x="1280" d="M123 909q0 180 131 295q123 109 307 109l453 2q53 0 84.5 -32t31.5 -85q0 -113 -116 -117l-56 -2v-1155q0 -51 -33.5 -84t-84.5 -33t-84 33t-33 84v1155h-162q-66 0 -119 -51t-53 -113q0 -61 45 -103t105 -46q41 -4 73.5 -39t32.5 -78v-553q0 -51 -32.5 -83.5 t-84.5 -32.5q-53 0 -84.5 31.5t-31.5 84.5v455q-156 43 -234 164q-55 88 -55 194z" />
<glyph unicode="&#xb7;" horiz-adv-x="702" d="M186 852q0 70 48.5 118t117.5 48q70 0 119 -48t49 -118t-50 -118t-118 -48q-70 0 -118 49t-48 117z" />
<glyph unicode="&#xb8;" horiz-adv-x="819" d="M262 -393q0 35 25.5 53t58.5 10q27 -6 80 -8q143 -4 147 111q-31 37 -145 41q-127 6 -121 51q0 20 8 41l39 100q18 45 64 45q68 0 67 -74q0 -25 -10 -51q227 -26 227 -157q4 -141 -98 -193q-82 -41 -178 -41q-164 0 -164 72z" />
<glyph unicode="&#xba;" horiz-adv-x="972" d="M123 881q0 158 106.5 276.5t264.5 118.5q37 0 63 -4q117 -18 181.5 -95t64.5 -194q0 -158 -107.5 -277.5t-263.5 -119.5q-27 0 -63 6q-246 43 -246 289zM127 379q0 94 96 94h500q92 0 92 -94t-92 -94h-500q-96 0 -96 94zM319 887q0 -47 23 -88q27 -49 70 -56 q59 -10 116 52q49 51 68 114q10 37 10 68q0 47 -22 88q-27 49 -70 55q-59 10 -117 -51q-49 -51 -67 -115q-10 -37 -11 -67z" />
<glyph unicode="&#xbb;" horiz-adv-x="1310" d="M129 823q0 47 37 84t84 37q43 0 78 -31q90 -78 266 -235q90 -82 90 -131q0 -53 -88 -123q-8 -6 -266 -205q-35 -27 -72 -26q-49 0 -84 35.5t-35 84.5q0 55 47 93l191 147l-207 184q-41 37 -41 86zM584 897q0 47 36.5 84t84.5 37q43 0 81 -35q86 -76 256 -229 q144 -133 144 -217q0 -43 -37 -78l-330 -305q-41 -37 -94 -45q-51 0 -85 33.5t-34 84.5q2 70 58 103l235 217l-276 266q-39 37 -39 84z" />
<glyph unicode="&#xbf;" horiz-adv-x="983" d="M123 -68q0 109 108 220q68 68 228 176q57 39 76 59q4 10 -5 35q-33 20 -112 29q-104 10 -105 106q0 55 39 84t97 29q82 0 192 -66q133 -80 133 -215q0 -88 -65 -160q-16 -18 -197 -147q-150 -106 -154 -145q-2 -20 48 -70q18 -18 45 -19q59 0 143 62q72 51 100 98 q37 57 97 58q49 0 86.5 -34t37.5 -83q0 -33 -20 -66q-68 -111 -193 -188q-131 -80 -256 -80t-208 86q-115 119 -115 231zM385 975q0 57 43 96t107 39q63 0 106 -39t43 -96t-43 -96t-106 -39q-61 0 -105.5 40t-44.5 95z" />
<glyph unicode="&#xc0;" horiz-adv-x="1312" d="M168 131q23 268 82 537q84 375 196 534q-8 53 28 97t89 44q37 0 66 -18q313 -197 458 -809h17q53 0 85 -32t32 -85q0 -96 -88 -114q14 -98 20 -224q2 -53 -30.5 -88.5t-86.5 -35.5q-111 0 -117 111.5t-24 232.5l-328 -2q-53 0 -85.5 31.5t-32.5 84.5q0 51 33.5 84 t84.5 33l279 4q-88 328 -236 508q-74 -133 -141 -471q-53 -268 -68 -442q-8 -109 -114 -109q-57 0 -90 37t-29 92zM365 1587q0 37 37.5 65.5t74.5 28.5q92 0 215 -94q115 -90 115 -145q0 -35 -57 -35q-59 0 -170 37q-92 29 -131 51q-84 47 -84 92z" />
<glyph unicode="&#xc1;" horiz-adv-x="1376" d="M170 131q23 268 82 537q84 375 197 534q-8 53 27.5 97t88.5 44q37 0 66 -18q313 -197 459 -809h16q53 0 85 -32t32 -85q0 -96 -88 -114q14 -98 20 -224q2 -53 -30.5 -88.5t-86.5 -35.5q-111 0 -117 111.5t-24 232.5l-328 -2q-53 0 -85.5 31.5t-32.5 84.5q0 51 33.5 84 t84.5 33l279 4q-88 328 -236 508q-74 -133 -141 -471q-53 -268 -68 -442q-8 -109 -114 -109q-57 0 -90 37t-29 92zM502 1458q0 66 115.5 152t189.5 86q45 0 82 -31q29 -25 29 -49q0 -33 -56 -66q-10 -6 -90 -45q-182 -84 -227 -84q-43 0 -43 37z" />
<glyph unicode="&#xc2;" horiz-adv-x="1280" d="M137 131q23 268 82 537q84 375 197 534q-8 53 27.5 97t88.5 44q37 0 66 -18q313 -197 459 -809h16q53 0 85 -32t32 -85q0 -96 -88 -114q14 -98 20 -224q2 -53 -30.5 -88.5t-85.5 -35.5q-111 0 -117 111.5t-25 232.5l-327 -2q-53 0 -86 31.5t-33 84.5q0 51 33.5 84 t85.5 33l278 4q-88 328 -235 508q-74 -133 -142 -471q-53 -268 -67 -442q-8 -109 -115 -109q-57 0 -90 37t-29 92zM172 1452q0 25 29 43q143 102 202 133q80 43 140 43q59 0 135 -45q55 -33 186 -135q25 -19 25 -39q0 -33 -49 -53q-39 -16 -78 -17q-61 0 -96 29l-129 107 l-148 -109q-37 -27 -90 -27q-41 0 -78 17q-49 20 -49 53z" />
<glyph unicode="&#xc3;" horiz-adv-x="1312" d="M170 131q23 268 82 537q84 375 197 534q-8 53 27.5 97t88.5 44q37 0 66 -18q313 -197 459 -809h16q53 0 85 -32t32 -85q0 -96 -88 -114q14 -98 20 -224q2 -53 -30.5 -88.5t-86.5 -35.5q-111 0 -117 111.5t-24 232.5l-328 -2q-53 0 -85.5 31.5t-32.5 84.5q0 51 33.5 84 t84.5 33l279 4q-88 328 -236 508q-74 -133 -141 -471q-53 -268 -68 -442q-8 -109 -114 -109q-57 0 -90 37t-29 92zM252 1479q0 39 43 65q72 49 145 98q70 43 115 44q55 0 132 -57.5t95 -57.5q35 0 96.5 54t106.5 54q35 0 67.5 -23.5t32.5 -58.5q0 -31 -32 -61 q-160 -147 -254 -147q-49 0 -137.5 57t-116.5 57q-45 0 -99.5 -55t-74.5 -57q-39 -6 -79 20.5t-40 67.5z" />
<glyph unicode="&#xc4;" horiz-adv-x="1310" d="M104 131q23 268 82 537q84 375 197 534q-8 53 27.5 97t89.5 44q37 0 65 -18q313 -197 459 -809h16q53 0 85 -32t32 -85q0 -96 -88 -114q14 -98 21 -224q2 -53 -31 -88.5t-86 -35.5q-111 0 -117 111.5t-25 232.5l-327 -2q-53 0 -86 31.5t-33 84.5q0 51 34 84t85 33l278 4 q-88 328 -235 508q-74 -133 -141 -471q-53 -268 -68 -442q-8 -109 -115 -109q-57 0 -90 37t-29 92zM147 1505q0 55 68 101q59 43 117 43q104 0 104 -125q0 -53 -46 -87t-101 -34q-141 0 -142 102zM614 1505q0 57 54 97q47 35 104 34q119 1 119 -118q0 -47 -59.5 -93.5 t-106.5 -46.5q-111 0 -111 127z" />
<glyph unicode="&#xc5;" horiz-adv-x="1310" d="M104 131q-4 -55 29 -92t90 -37q106 0 115 109q14 174 68 442q68 338 141 471q147 -180 235 -508l-278 -4q-51 0 -86 -33q-33 -33 -33 -84q0 -53 33 -86q33 -31 86 -30l327 2q18 -121 25 -234q6 -111 117 -110q53 0 86 36q33 35 31 88q-6 125 -21 224q88 18 88 114 q0 53 -31.5 85t-85.5 32h-16q-123 518 -369 739q12 8 23 21q78 76 78 174q0 80 -53.5 134t-135.5 54q-96 0 -174 -77q-76 -76 -76 -172q0 -80 54 -136l12 -12q-4 -18 0 -39q-113 -160 -197 -534q-59 -268 -82 -537zM446 1405q0 57 70 86q27 10 57 10q60 0 54 -53 q-8 -80 -66 -105q-10 -4 -20 -6q-18 6 -41 6q-16 0 -31 -4q-23 16 -23 66z" />
<glyph unicode="&#xc6;" horiz-adv-x="1695" d="M111 -16q29 348 231 766q190 393 395 573q37 33 78 33q55 0 94 -47q49 14 123 14q109 0 250 -31q158 -33 234 -82q55 -35 55 -96q0 -49 -34 -86t-83 -37q-33 0 -65 21q-80 51 -302 73v-380q168 82 256 133q29 16 62 16q49 0 83 -37t34 -86q0 -63 -60 -98 q-143 -84 -375 -187v-202q201 10 336 80q27 14 58 14q49 0 81.5 -37t32.5 -86q0 -70 -65 -102q-205 -104 -494 -105q-39 0 -67 2q-88 6 -107 88q-10 25 -10 54v190l-444 -70q-49 -170 -62 -307q-8 -109 -117 -108q-53 0 -88 36.5t-30 90.5zM498 524l354 58v518l-4 2 q-193 -205 -350 -578z" />
<glyph unicode="&#xc7;" horiz-adv-x="1087" d="M129 545q-4 385 256 602q197 164 369 164q152 0 252 -201q14 -29 14 -57q0 -47 -38 -81t-85 -34q-68 0 -100 66q-23 45 -43 65q-188 -31 -295 -195q-94 -147 -94 -348q0 -111 36 -207q49 -133 142 -124q133 12 237 182q35 57 97 57q49 0 85.5 -33.5t36.5 -83.5 q0 -33 -18 -63q-182 -299 -428 -297q-6 2 -8 -12q227 -29 227 -185q0 -43 -20 -96q-25 -61 -64 -92q-80 -59 -203 -59q-51 0 -107 12t-56 63q0 68 65 68q10 0 33.5 -4t36.5 -4q182 0 174 96q-4 55 -142 55q-55 0 -85.5 24.5t-30.5 57.5q0 5 39 105q-88 39 -156 127 q-125 162 -127 432z" />
<glyph unicode="&#xc8;" horiz-adv-x="1183" d="M131 1053q0 94 182 145q2 0 256 47t361 51q53 2 88 -29.5t35 -86.5q0 -111 -115 -117q-123 -6 -455 -74v-244q246 57 293 86q27 16 62 17q49 0 82.5 -37t33.5 -86q0 -63 -59 -98q-86 -51 -412 -123v-283q47 -8 97 -8q164 0 272 96q37 33 78 33q47 0 83 -38t36 -85 q0 -49 -41 -86q-176 -156 -426 -156q-141 0 -265 50q-76 31 -75 104q0 18 6 35v303q-100 14 -101 117q0 104 101 116v228q-51 0 -84 35.5t-33 87.5zM295 1577q0 37 36 67.5t75 30.5q90 0 215 -102q116 -95 116 -154q0 -23 -57 -22q-154 0 -299 84q-86 51 -86 96z" />
<glyph unicode="&#xc9;" horiz-adv-x="1183" d="M119 1053q0 94 182 145q2 0 257 47t360 51q55 2 88.5 -29.5t33.5 -86.5q0 -111 -114 -117q-123 -6 -455 -74v-244q246 57 293 86q29 16 61 17q49 0 83 -37t34 -86q0 -63 -59 -98q-84 -51 -412 -123v-283q47 -8 96 -8q164 0 273 96q37 33 78 33q47 0 82.5 -38t35.5 -85 q0 -49 -41 -86q-176 -156 -426 -156q-139 0 -264 50q-76 31 -76 104q0 18 7 35v303q-100 14 -101 117q0 104 101 116v228q-51 0 -84 35.5t-33 87.5zM367 1368q0 78 134 180.5t220 102.5q43 0 74 -29q47 -47 47 -78q0 -39 -86 -92q-190 -117 -314 -117q-76 0 -75 33z" />
<glyph unicode="&#xca;" horiz-adv-x="1183" d="M115 1053q0 94 184 145q2 0 256 47t358 51q55 2 89 -29.5t34 -86.5q0 -111 -114 -117q-121 -6 -455 -74v-244q246 57 293 86q29 16 61 17q51 0 84 -37t33 -86q0 -63 -59 -98q-84 -51 -412 -123v-283q47 -8 96 -8q164 0 273 96q37 33 77 33q49 0 84 -38t35 -85 q0 -49 -41 -86q-174 -156 -426 -156q-139 0 -264 50q-76 31 -76 104q0 18 6 35v303q-100 14 -100 117q0 104 100 116v228q-49 0 -82.5 35.5t-33.5 87.5zM201 1438q0 27 24 47q115 100 181 143q74 49 124 49q53 0 119 -49q45 -31 164 -147q23 -20 23 -43q0 -33 -41 -56 q-33 -18 -72 -18q-53 0 -84 31l-115 116l-131 -118q-31 -29 -80 -29q-37 0 -71 18q-41 23 -41 56z" />
<glyph unicode="&#xcb;" horiz-adv-x="1183" d="M68 1053q0 94 182 145q2 0 257 47t359 51q55 2 89 -29.5t34 -86.5q0 -111 -115 -117q-121 -6 -454 -74v-244q246 57 293 86q29 16 61 17q49 0 83 -37t34 -86q0 -63 -60 -98q-84 -51 -411 -123v-283q47 -8 96 -8q164 0 272 96q37 33 78 33q47 0 83 -38t36 -85 q0 -49 -41 -86q-174 -156 -426 -156q-139 0 -264 50q-76 31 -76 104q0 18 6 35v303q-100 14 -100 117q0 104 100 116v228q-49 0 -82.5 35.5t-33.5 87.5zM152 1479q0 66 53 104q47 35 114 35q103 0 103 -123q0 -57 -49 -99t-105 -42q-117 0 -116 125zM582 1520q0 66 49 102.5 t119 36.5q102 0 102 -123q0 -55 -49 -98t-105 -43q-117 0 -116 125z" />
<glyph unicode="&#xcc;" horiz-adv-x="901" d="M145 25q0 51 33 84.5t84 33.5h84v807l-35 -8q-18 -4 -35 -4q-49 0 -80.5 36t-31.5 85q0 88 88 110l401 105q16 4 33 4q51 0 83 -39t32 -90q0 -90 -88 -109l-131 -28v-819q39 12 49 24q37 41 84 41t85 -37t38 -84q0 -131 -303 -198q-147 -33 -273 -33q-51 0 -84 33.5 t-33 85.5zM225 1548q0 80 99 80q76 0 196.5 -89t120.5 -157q0 -33 -63 -32q-80 0 -216.5 64.5t-136.5 133.5z" />
<glyph unicode="&#xcd;" horiz-adv-x="901" d="M135 25q0 51 33 84.5t84 33.5h84v807l-35 -8q-16 -4 -35 -4q-47 0 -79.5 36t-32.5 85q0 88 88 110l401 105q16 4 33 4q51 0 83 -39t32 -90q0 -90 -89 -109l-131 -28v-819q39 12 50 24q37 41 84 41q49 0 85.5 -37t36.5 -84q0 -131 -303 -198q-147 -33 -272 -33 q-51 0 -84 33.5t-33 85.5zM260 1403q0 59 111 158q123 111 213 110q39 0 70.5 -30.5t31.5 -67.5q0 -55 -90 -103q-156 -86 -274 -86h-48q-14 2 -14 19z" />
<glyph unicode="&#xce;" horiz-adv-x="901" d="M102 25q0 51 33 84.5t84 33.5h84v807l-35 -8q-16 -4 -35 -4q-47 0 -79.5 36t-32.5 85q0 88 88 110l401 105q16 4 33 4q51 0 83 -39t32 -90q0 -90 -88 -109l-131 -28v-819q39 12 49 24q37 41 84 41q49 0 86 -37t37 -84q0 -131 -303 -198q-147 -33 -273 -33q-51 0 -84 33.5 t-33 85.5zM123 1460q0 29 80 103q57 55 108 92q68 49 115 49q49 0 111 -51q170 -142 170 -195q0 -33 -31 -54.5t-72 -21.5q-49 0 -78 33l-106 119l-119 -121q-29 -31 -78 -31q-39 0 -69.5 21.5t-30.5 56.5z" />
<glyph unicode="&#xcf;" horiz-adv-x="901" d="M98 1444q0 55 55.5 96t112.5 41q55 0 88 -37t33 -92t-57.5 -95t-114.5 -40q-117 0 -117 127zM102 25q0 51 33 84.5t84 33.5h84v807l-35 -8q-16 -4 -35 -4q-47 0 -79.5 36t-32.5 85q0 88 88 110l401 105q16 4 33 4q51 0 83 -39t32 -90q0 -90 -88 -109l-131 -28v-819 q39 12 49 24q37 41 84 41q49 0 86 -37t37 -84q0 -131 -303 -198q-147 -33 -273 -33q-51 0 -84 33.5t-33 85.5zM494 1509q0 55 57 99q51 39 108 39q55 0 93.5 -35t38.5 -90q0 -53 -62.5 -96.5t-118.5 -43.5q-117 0 -116 127z" />
<glyph unicode="&#xd1;" horiz-adv-x="1228" d="M141 74l29 1089q4 131 102 131q59 0 109 -65q188 -256 405 -715q96 463 105 719q4 115 117 115q53 0 85.5 -35t30.5 -88q-16 -500 -192 -1110q-31 -104 -111 -105q-74 0 -110 92q-139 342 -318 662l-18 -698q-2 -51 -34 -83t-83 -32q-53 0 -86 34.5t-31 88.5zM201 1485 q0 39 43 65q74 49 147 99q68 43 115 43q55 0 131 -57.5t94 -57.5q37 0 98.5 54.5t104.5 54.5q37 0 68.5 -23.5t31.5 -58.5q0 -31 -33 -62q-158 -147 -253 -147q-47 0 -135.5 57t-116.5 57q-47 0 -100.5 -55t-76.5 -57q-37 -6 -77.5 20.5t-40.5 67.5z" />
<glyph unicode="&#xd2;" horiz-adv-x="1146" d="M113 512q0 266 108 504q154 334 449 334q223 0 315 -232q57 -143 57 -350q0 -315 -118 -567q-137 -293 -369 -293q-242 0 -358 235q-84 168 -84 369zM373 543q0 -346 123 -375q16 -4 30 -4q104 0 179 170q90 207 90 483q0 233 -93 252q-20 4 -43 4q-147 0 -227 -215 q-59 -160 -59 -315zM420 1647q0 37 31.5 61.5t70.5 24.5q94 0 217 -93q115 -86 115 -143q0 -31 -66 -31q-96 0 -219 52q-150 57 -149 129z" />
<glyph unicode="&#xd3;" horiz-adv-x="1146" d="M113 512q0 266 108 504q154 334 449 334q223 0 315 -232q57 -143 57 -350q0 -315 -118 -567q-137 -293 -369 -293q-242 0 -358 235q-84 168 -84 369zM373 543q0 -346 123 -375q16 -4 30 -4q104 0 179 170q90 207 90 483q0 233 -93 252q-20 4 -43 4q-147 0 -227 -215 q-59 -160 -59 -315zM457 1468q0 68 151 148q139 72 217 72q39 0 74 -19q43 -24 43 -61q0 -49 -106 -99q-152 -70 -306 -69q-74 0 -73 28z" />
<glyph unicode="&#xd4;" horiz-adv-x="1146" d="M113 512q0 266 108 504q154 334 449 334q223 0 315 -232q57 -143 57 -350q0 -315 -118 -567q-137 -293 -369 -293q-242 0 -358 235q-84 168 -84 369zM365 1475q0 20 22 38q203 170 279 170q47 0 108 -43q41 -29 150 -129q18 -15 18 -38q0 -29 -39 -48q-31 -16 -63 -16 q-49 0 -76 27l-107 102l-116 -104q-29 -25 -74 -25q-35 0 -66 16q-37 18 -36 50zM373 543q0 -346 123 -375q16 -4 30 -4q104 0 179 170q90 207 90 483q0 233 -93 252q-20 4 -43 4q-147 0 -227 -215q-59 -160 -59 -315z" />
<glyph unicode="&#xd5;" horiz-adv-x="1146" d="M113 512q0 266 108 504q154 334 449 334q223 0 315 -232q57 -143 57 -350q0 -315 -118 -567q-137 -293 -369 -293q-242 0 -358 235q-84 168 -84 369zM344 1489q0 39 43 65q74 49 148 99q68 43 112 43q57 0 133 -57.5t94 -57.5q37 0 98.5 54.5t104.5 54.5q37 0 69 -23.5 t32 -58.5q0 -31 -33 -62q-158 -147 -254 -147q-47 0 -135 57t-119 57q-45 0 -98.5 -54t-75.5 -58q-39 -6 -76 20q-43 27 -43 68zM373 543q0 -346 123 -375q16 -4 30 -4q104 0 179 170q90 207 90 483q0 233 -93 252q-23 4 -43 4q-147 0 -227 -215q-59 -160 -59 -315z" />
<glyph unicode="&#xd6;" horiz-adv-x="1146" d="M113 512q0 266 108 504q154 334 449 334q223 0 315 -232q57 -143 57 -350q0 -315 -118 -567q-137 -293 -369 -293q-242 0 -358 235q-84 168 -84 369zM225 1534q0 53 55.5 95t110.5 42q57 0 90 -36t33 -93q0 -53 -57.5 -94t-114.5 -41q-117 0 -117 127zM373 543 q0 -346 123 -375q18 -4 30 -4q104 0 179 170q90 207 90 483q0 233 -93 252q-20 4 -43 4q-147 0 -227 -215q-59 -160 -59 -315zM750 1540q0 53 53 95t110 42q134 0 134 -125q0 -55 -62.5 -97t-120.5 -42q-115 0 -114 127z" />
<glyph unicode="&#xd8;" horiz-adv-x="1146" d="M113 512q0 266 108 504q154 334 449 334q84 0 149 -33l27 57q37 78 100 78q78 0 78 -82q0 -29 -16 -63l-56 -121q90 -156 90 -414q0 -319 -112 -579q-143 -285 -375 -285q-100 0 -178 41l-23 -47q-39 -80 -102 -80q-76 0 -76 84q0 29 17 63l47 103q-127 178 -127 440z M360 326l342 743l-43 4q-201 8 -286.5 -240.5t-12.5 -506.5zM481 174l60 -31q147 8 237 210.5t43 564.5z" />
<glyph unicode="&#xd9;" horiz-adv-x="1208" d="M199 524q0 176 53 381q43 168 106 291q33 66 101 66q53 0 88 -34t35 -83q0 -29 -15 -55q-133 -262 -133 -525q0 -117 33 -221q45 -147 137 -147q121 0 191 239q41 147 53 329.5t6 291.5q-2 53 32 88t89 35q141 0 137 -109q-14 -332 -27 -436q-37 -297 -131 -459 q-125 -213 -356 -213q-125 0 -225 94q-88 82 -135 211q-39 109 -39 256zM582 1513q0 39 25.5 72t64.5 33q80 0 186 -115q115 -125 115 -174q0 -31 -39 -31q-43 0 -244 82q-109 45 -108 133z" />
<glyph unicode="&#xda;" horiz-adv-x="1208" d="M199 524q0 176 53 381q43 168 106 291q33 66 101 66q53 0 88 -34t35 -83q0 -29 -15 -55q-133 -262 -133 -525q0 -117 33 -221q45 -147 137 -147q121 0 191 239q41 147 53 329.5t6 291.5q-2 53 32 88t89 35q141 0 137 -109q-14 -332 -27 -436q-37 -297 -131 -459 q-125 -213 -356 -213q-125 0 -225 94q-88 82 -135 211q-39 109 -39 256zM657 1370q0 78 119 184.5t199 106.5q37 0 69.5 -31t32.5 -67q1 -64 -149 -148q-133 -74 -213 -74q-57 0 -58 29z" />
<glyph unicode="&#xdb;" horiz-adv-x="1208" d="M166 524q0 176 53 381q43 168 107 291q33 66 100 66q53 0 88 -34t35 -83q0 -29 -14 -55q-133 -262 -134 -525q0 -117 33 -221q45 -147 137 -147q121 0 191 239q41 147 53 329.5t6 291.5q-2 53 32 88t89 35q141 0 137 -109q-14 -332 -26 -436q-37 -297 -131 -459 q-126 -213 -357 -213q-125 0 -225 94q-88 82 -135 211q-39 109 -39 256zM449 1415q0 23 24 45q129 109 178 144q72 47 123 47q53 0 119 -49q53 -39 162 -144q20 -20 20 -43q0 -35 -37 -54.5t-73 -19.5q-47 0 -82 33l-115 113l-129 -115q-33 -31 -80 -31q-35 0 -70 19 q-41 20 -40 55z" />
<glyph unicode="&#xdc;" horiz-adv-x="1208" d="M166 524q0 176 53 381q43 168 107 291q33 66 100 66q53 0 88 -34t35 -83q0 -29 -14 -55q-133 -262 -134 -525q0 -117 33 -221q45 -147 137 -147q121 0 191 239q41 147 53 329.5t6 291.5q-2 53 32 88t89 35q141 0 137 -109q-14 -332 -26 -436q-37 -297 -131 -459 q-126 -213 -357 -213q-125 0 -225 94q-88 82 -135 211q-39 109 -39 256zM348 1487q0 55 51 90q45 31 105 31q55 0 88 -38t33 -93q0 -53 -54.5 -85t-111.5 -32q-111 0 -111 127zM834 1444q0 55 45 93t102 38q55 0 94 -35t39 -90t-54 -94t-110 -39q-117 0 -116 127z" />
<glyph unicode="&#xdf;" horiz-adv-x="1290" d="M158 -369v1270q0 125 121 268q135 160 299 160q88 0 174 -53q166 -104 166 -260q0 -143 -115 -254q-66 -63 -66 -84q12 -33 148 -117q150 -90 200 -160q78 -107 78 -213q0 -205 -272 -260q-31 -6 -57 -6q-100 0 -193 70q-113 86 -113 166q0 49 37 81.5t86 32.5 q63 0 99 -61q29 -51 92 -51q84 0 84 61q0 66 -140 131q-287 133 -286 322q0 127 139 260q47 45 47 80q0 61 -98 61q-78 0 -136.5 -48t-58.5 -126v-1270q0 -51 -33.5 -83.5t-85.5 -32.5q-51 0 -83.5 32.5t-32.5 83.5z" />
<glyph unicode="&#xe0;" horiz-adv-x="1146" d="M139 360q0 233 170 427t402 194q61 0 98 -14q121 0 119 -119q-8 -494 16 -549q35 -82 92 -154q27 -32 27 -71q0 -49 -37 -86t-86 -37q-55 0 -88 47q-18 29 -62 88q-113 -123 -274 -123q-164 0 -270.5 116t-106.5 281zM325 1366q0 43 34 76t75 33q100 0 229 -131 q123 -125 123 -203q0 -41 -63 -37q-137 12 -283 119q-115 84 -115 143zM371 360q0 -150 161 -149q31 0 68 6q12 12 61 82q19 25 39 37q-2 27 -6 242q-2 141 -2 167q-123 -12 -222 -136t-99 -249z" />
<glyph unicode="&#xe1;" horiz-adv-x="1146" d="M162 360q0 233 170 427t402 194q61 0 98 -14q121 0 119 -119q-8 -494 16 -549q35 -82 92 -154q27 -32 27 -71q0 -49 -37 -86t-86 -37q-55 0 -88 47q-18 29 -62 88q-113 -123 -274 -123q-164 0 -270.5 116t-106.5 281zM394 360q0 -150 161 -149q31 0 68 6q12 12 61 82 q19 25 39 37q-2 27 -6 242q-2 141 -2 167q-123 -12 -222 -136t-99 -249zM432 1137q0 88 132.5 211t222.5 123q42 0 71 -33q39 -43 39 -78q0 -53 -106 -129q-158 -117 -277 -131q-82 -10 -82 37z" />
<glyph unicode="&#xe2;" horiz-adv-x="1146" d="M135 360q0 233 170 427t402 194q61 0 98 -14q121 0 119 -119q-8 -494 16 -549q35 -82 92 -154q27 -32 27 -71q0 -49 -37 -86t-86 -37q-55 0 -88 47q-18 29 -62 88q-113 -123 -274 -123q-164 0 -270.5 116t-106.5 281zM283 1157q0 27 26 51q139 121 197 160q78 51 133 51 q57 0 131 -53q39 -31 176 -162q25 -24 25 -47q0 -39 -45 -61q-37 -20 -78 -21q-55 0 -90 35l-125 127l-141 -129q-37 -33 -89 -33q-41 0 -77 21q-43 23 -43 61zM367 360q0 -150 161 -149q31 0 68 6q12 12 61 82q19 25 39 37q-2 27 -6 242q-2 141 -2 167q-123 -12 -222 -136 t-99 -249z" />
<glyph unicode="&#xe3;" horiz-adv-x="1146" d="M117 360q0 233 170 427t401 194q61 0 98 -14q121 0 119 -119q-8 -494 17 -549q35 -82 92 -154q26 -32 26 -71q0 -49 -36.5 -86t-85.5 -37q-55 0 -89 47q-18 29 -61 88q-113 -123 -274 -123q-164 0 -270.5 116t-106.5 281zM186 1204q0 37 43 66l148 98q68 43 112 43 q57 0 133 -57.5t95 -57.5q37 0 98.5 54.5t104.5 54.5q37 0 68.5 -23.5t31.5 -58.5q0 -31 -33 -61q-158 -147 -254 -148q-47 0 -135 57.5t-119 57.5q-45 0 -98 -55.5t-76 -57.5q-39 -6 -76 21q-43 27 -43 67zM348 360q0 -150 162 -149q31 0 68 6q12 12 61 82q19 25 39 37 q-2 27 -6 242q-2 141 -2 167q-123 -12 -222.5 -136t-99.5 -249z" />
<glyph unicode="&#xe4;" horiz-adv-x="1146" d="M147 360q0 233 170 427t402 194q131 0 184 -45q33 -31 33 -88q-8 -494 16 -549q35 -82 92 -154q27 -33 27 -71q0 -49 -38 -86t-85 -37q-55 0 -88 47q-18 29 -61 88q-113 -123 -275 -123q-164 0 -270.5 116t-106.5 281zM250 1245q0 53 55 96t113 43q55 0 88 -37t33 -92 t-56.5 -96t-113.5 -41q-119 0 -119 127zM379 360q0 -150 160 -149q33 0 69 6q12 12 62 82q19 25 39 37q-2 27 -7 242q-2 141 -2 167q-123 -12 -222 -136t-99 -249zM694 1266q0 55 42 89t100 34q55 0 94 -36t39 -89q0 -57 -48.5 -94t-103.5 -37q-123 0 -123 133z" />
<glyph unicode="&#xe5;" horiz-adv-x="1146" d="M127 360q0 233 170 427t401 194q61 0 99 -14q121 0 118 -119q-8 -494 17 -549q35 -82 92 -154q27 -32 27 -71q0 -49 -37 -86t-86 -37q-55 0 -88 47q-18 29 -62 88q-113 -123 -274 -123q-164 0 -270.5 116t-106.5 281zM358 360q0 -150 162 -149q31 0 68 6q12 12 61 82 q19 25 39 37q-2 27 -6 242q-2 141 -2 167q-123 -12 -222.5 -136t-99.5 -249zM387 1282q0 113 93 196t206 83q94 0 158.5 -58.5t64.5 -150.5q0 -113 -92 -197t-207 -84q-94 0 -158.5 59.5t-64.5 151.5zM543 1300q0 -82 67 -81q29 0 68 14q68 27 80 117q8 59 -66 59 q-37 0 -67 -12q-82 -31 -82 -97z" />
<glyph unicode="&#xe6;" horiz-adv-x="1599" d="M143 362q0 233 170 427t402 194q6 0 47 2q31 2 47 0q25 -4 41 -18q45 -39 45 -105q63 70 162 113q90 39 174 39q111 0 180.5 -69.5t69.5 -180.5q0 -164 -140 -287q-117 -104 -292 -151q-47 -12 -86 8q33 -121 127 -121q78 0 170 82q37 33 77 33q47 0 84 -38t37 -85 t-43 -86q-141 -125 -321 -148q-96 -12 -107 -12q-63 0 -117 41q-25 18 -75 88q-113 -123 -275 -123q-164 0 -270.5 116t-106.5 281zM375 362q0 -72 47 -113.5t115 -41.5q35 0 67 12q21 8 101 119q-2 27 -7 242q-2 141 -2 168q-123 -12 -222 -136.5t-99 -249.5zM954 565 q25 -39 41 -37q59 8 172 78q92 57 93 127q-1 27 -11 60q-6 2 -47 -7q-49 -10 -82 -24q-82 -35 -116.5 -79t-49.5 -118z" />
<glyph unicode="&#xe7;" d="M152 412q0 174 102 346q131 221 328 221q92 0 202 -64q127 -72 127 -157q0 -49 -36.5 -85t-86.5 -36q-51 0 -88 45q-51 63 -106 63q-92 0 -152 -141q-47 -113 -47 -219q0 -154 88 -186q33 -12 62 -13q61 0 106 60q37 49 90 49q47 0 85 -36t38 -83q0 -37 -26 -72 q-111 -143 -258 -155q0 2 -2 -4q227 -29 227 -185q0 -41 -25 -98q-25 -63 -59 -90q-82 -59 -203 -59q-51 0 -107.5 12t-56.5 63q0 68 66 68q10 0 33.5 -4t35.5 -4q182 0 175 96q-4 55 -142 55q-55 0 -85.5 24.5t-30.5 57.5q0 20 12 45q18 37 20 39q-90 33 -166 117 q-121 133 -120 330z" />
<glyph unicode="&#xe8;" d="M162 471q0 162 82 295q66 109 190.5 186.5t247.5 77.5q113 0 181.5 -69.5t68.5 -182.5q0 -88 -47 -176q-51 -96 -166 -173t-231 -91q-59 -8 -88 8q37 -139 129 -139q82 0 194 100q35 31 78 31q39 0 72.5 -35t33.5 -82q0 -49 -41 -86q-166 -147 -323 -147q-172 0 -283 159 q-98 143 -98 324zM278 1378q0 43 34 76t75 33q100 0 229 -131q123 -125 123 -203q0 -41 -63 -37q-137 12 -283 119q-115 84 -115 143zM395 553q16 -12 56 -23q98 8 170 54q47 29 80 86q28 51 28 90q0 43 -65 43q-35 0 -60 -10q-182 -80 -209 -240z" />
<glyph unicode="&#xe9;" d="M172 471q0 162 82 295q66 109 190.5 186.5t247.5 77.5q113 0 181.5 -69.5t68.5 -182.5q0 -88 -47 -176q-51 -96 -166 -173t-231 -91q-59 -8 -88 8q37 -139 129 -139q82 0 194 100q35 31 78 31q39 0 72.5 -35t33.5 -82q0 -49 -41 -86q-166 -147 -323 -147q-172 0 -283 159 q-98 143 -98 324zM395 1155q0 88 132.5 211t222.5 123q42 0 71 -33q39 -43 39 -78q0 -53 -106 -129q-158 -117 -277 -131q-82 -10 -82 37zM405 553q16 -12 56 -23q98 8 170 54q47 29 80 86q28 51 28 90q0 43 -65 43q-35 0 -60 -10q-182 -80 -209 -240z" />
<glyph unicode="&#xea;" d="M113 471q0 162 82 295q68 109 188 184q129 80 250 80q113 0 181.5 -69.5t68.5 -182.5q0 -88 -47 -176q-49 -96 -165 -173t-233 -91q-59 -8 -88 8q39 -139 129 -139q82 0 195 100q35 31 78 31q39 0 72.5 -35t33.5 -82q0 -49 -41 -86q-164 -147 -323 -147q-172 0 -283 159 q-98 143 -98 324zM262 1182q0 27 27 51q115 102 151 129q109 82 176 82q59 0 132 -53q51 -39 178 -162q22 -22 22 -47q0 -37 -35.5 -58.5t-83.5 -21.5q-59 0 -92 33l-127 127l-139 -129q-35 -31 -90 -31q-47 0 -83 22.5t-36 57.5zM346 553q16 -12 55 -23q100 8 170 54 q47 29 80 86q29 51 29 90q0 43 -66 43q-33 0 -59 -10q-180 -80 -209 -240z" />
<glyph unicode="&#xeb;" d="M113 471q0 162 82 295q66 109 186 184q129 80 252 80q111 0 180.5 -69.5t69.5 -182.5q0 -88 -47 -176q-51 -96 -167 -173t-231 -91q-61 -8 -88 8q37 -139 129 -139q80 0 195 100q33 31 78 31q39 0 72.5 -35t33.5 -82q0 -49 -41 -86q-166 -147 -323 -147q-174 0 -285 159 q-96 143 -96 324zM240 1227q0 55 55 97t113 42q53 0 86.5 -38t33.5 -91q0 -55 -57 -96t-115 -41q-117 0 -116 127zM346 553q16 -12 55 -23q98 8 170 54q47 29 78 86q31 51 31 90q0 43 -68 43q-33 0 -57 -10q-182 -80 -209 -240zM637 1272q0 55 54 97t112 42q53 0 92 -35 t39 -90q0 -53 -62.5 -97t-117.5 -44q-117 0 -117 127z" />
<glyph unicode="&#xec;" horiz-adv-x="671" d="M96 1346q0 41 39 84q29 33 72 32q92 0 223 -123t131 -213q0 -43 -72 -43q-125 0 -286 119q-106 78 -107 144zM203 29v755q0 66 54 126.5t120 60.5q84 0 86 -78q6 -387 0 -756q0 -51 -80 -127q-57 -57 -115 -57q-66 0 -65 76z" />
<glyph unicode="&#xed;" horiz-adv-x="671" d="M125 1120q0 88 132 212t222 124q39 0 72 -33.5t33 -72.5q0 -66 -121 -154q-166 -121 -268 -121q-70 0 -70 45zM203 29v755q0 66 54 126.5t120 60.5q86 0 86 -64q6 -386 0 -755q0 -66 -80 -142q-57 -57 -115 -57q-66 0 -65 76z" />
<glyph unicode="&#xee;" horiz-adv-x="671" d="M51 1135q0 29 25 55q57 74 151 178q68 55 119 55t115 -57q49 -41 170 -170q16 -18 16 -41q0 -37 -36.5 -66.5t-73.5 -29.5q-43 0 -74 35l-123 135l-102 -148q-27 -37 -76 -37q-39 0 -75 26t-36 65zM190 29v755q0 66 55.5 126.5t119.5 60.5q80 0 81 -76q6 -387 0 -756 q-2 -59 -73 -129q-59 -57 -117 -57q-66 0 -66 76z" />
<glyph unicode="&#xef;" horiz-adv-x="671" d="M39 1208q0 55 47 99.5t102 44.5q43 0 80 -38t37 -81q0 -53 -58.5 -111.5t-105.5 -58.5q-102 0 -102 145zM190 29v755q0 66 55.5 126.5t119.5 60.5q86 0 88 -76q6 -387 0 -756q-2 -53 -80 -129q-59 -57 -117 -57q-66 0 -66 76zM410 1221q0 55 48 93t103 38q121 0 121 -125 q0 -55 -57.5 -103.5t-112.5 -48.5q-102 0 -102 146z" />
<glyph unicode="&#xf1;" horiz-adv-x="1089" d="M156 1178q0 39 43 65q72 49 145 98q68 43 115 43q55 0 133 -59t96 -59q35 0 95.5 56t103.5 56q37 0 68.5 -22.5t31.5 -59.5q0 -31 -33 -61q-164 -152 -249 -152q-49 0 -138.5 59.5t-117.5 59.5q-45 0 -99.5 -54t-75.5 -58q-39 -6 -78.5 20.5t-39.5 67.5zM205 106v785 q0 51 31.5 84t85.5 33q51 0 84.5 -32t33.5 -85v-129q127 139 279 139q119 0 180 -98q53 -84 53 -211v-498q0 -119 -118 -119q-117 0 -117 119v498q0 74 -76 74q-98 2 -156 -103q-47 -88 -45 -192l2 -265q0 -53 -33.5 -84.5t-84.5 -31.5q-53 0 -86 31.5t-33 84.5z" />
<glyph unicode="&#xf2;" d="M136 389q0 215 108 393q127 209 328 209q37 0 76 -8q147 -31 223 -162q67 -112 67 -274q0 -215 -108 -395q-125 -209 -328 -209q-37 0 -76 8q-147 31 -223 162q-68 115 -67 276zM268 1347q0 43 34 76t75 33q100 0 229 -131q123 -125 123 -203q0 -41 -63 -37 q-137 12 -283 119q-115 84 -115 143zM369 399q0 -61 25 -127q31 -80 82 -90t112 45q78 70 107 207q10 50 10 103q0 61 -25 127q-31 80 -82 90q-76 16 -145 -86q-55 -80 -74 -166q-10 -49 -10 -103z" />
<glyph unicode="&#xf3;" d="M136 389q0 215 108 393q127 209 328 209q37 0 76 -8q147 -31 223 -162q67 -112 67 -274q0 -215 -108 -395q-125 -209 -328 -209q-37 0 -76 8q-147 31 -223 162q-68 115 -67 276zM335 1116q0 88 132.5 211t222.5 123q42 0 71 -33q39 -43 39 -78q0 -53 -106 -129 q-158 -117 -277 -131q-82 -10 -82 37zM369 399q0 -61 25 -127q31 -80 82 -90t112 45q78 70 107 207q10 50 10 103q0 61 -25 127q-31 80 -82 90q-76 16 -145 -86q-55 -80 -74 -166q-10 -49 -10 -103z" />
<glyph unicode="&#xf4;" d="M115 389q0 215 108 393q125 209 328 209q37 0 76 -8q145 -31 223 -162q68 -114 68 -274q0 -215 -109 -395q-127 -209 -328 -209q-39 0 -75 8q-150 31 -226 162q-66 115 -65 276zM199 1133q0 27 28 51q125 109 152 131q111 80 178 80q68 0 166 -82q8 -6 139 -133 q25 -23 25 -47q0 -37 -42 -59.5t-81 -22.5q-55 0 -90 34l-125 127l-141 -129q-37 -33 -89 -32q-39 0 -75 20q-45 25 -45 62zM348 399q0 -61 25 -127q31 -80 82 -90q49 -10 112 45q78 70 107 207q10 50 10 103q0 61 -27 127q-31 80 -79 90q-76 16 -148 -86q-55 -80 -72 -166 q-10 -49 -10 -103z" />
<glyph unicode="&#xf5;" d="M115 389q0 215 108 393q125 209 328 209q37 0 76 -8q145 -31 223 -162q68 -112 68 -274q0 -215 -109 -395q-127 -209 -328 -209q-39 0 -75 8q-150 31 -226 162q-66 115 -65 276zM141 1194q0 39 43 66l148 98q68 43 114 43q55 0 131 -57.5t95 -57.5q37 0 98 54.5t104 54.5 q37 0 69 -23.5t32 -58.5q0 -31 -33 -62q-158 -147 -254 -147q-47 0 -135 57.5t-117 57.5q-47 0 -100 -54.5t-76 -58.5q-37 -6 -78 20.5t-41 67.5zM348 399q0 -61 25 -127q31 -80 82 -90q49 -10 112 45q78 70 107 207q10 50 10 103q0 61 -27 127q-31 80 -79 90 q-76 16 -148 -86q-55 -80 -72 -166q-10 -49 -10 -103z" />
<glyph unicode="&#xf6;" d="M115 389q0 215 108 393q125 209 328 209q37 0 76 -8q145 -31 223 -162q68 -112 68 -274q0 -215 -109 -395q-127 -209 -328 -209q-39 0 -75 8q-150 31 -226 162q-66 115 -65 276zM215 1196q0 53 59 96q53 41 109 41q57 0 89 -37t32 -92q0 -53 -57.5 -94t-112.5 -41 q-119 0 -119 127zM348 399q0 -61 25 -127q31 -80 82 -90q49 -10 112 45q78 70 107 207q10 50 10 103q0 61 -27 127q-31 80 -79 90q-76 16 -148 -86q-55 -80 -72 -166q-10 -49 -10 -103zM614 1196q0 55 54.5 97t111.5 42q53 0 92 -36t39 -89q0 -55 -62.5 -98t-119.5 -43 q-115 0 -115 127z" />
<glyph unicode="&#xf7;" d="M72 551q0 51 32.5 85t83.5 34h625q51 0 84 -34t33 -85t-33 -84t-84 -33h-625q-51 0 -83.5 33t-32.5 84zM332 188q0 55 54 96.5t112 41.5q55 0 93 -35t38 -90q0 -53 -62.5 -96.5t-120.5 -43.5q-115 0 -114 127zM379 909q0 55 55 96.5t113 41.5q55 0 88 -36t33 -93 q0 -53 -57.5 -94.5t-112.5 -41.5q-119 0 -119 127z" />
<glyph unicode="&#xf8;" d="M88 -55q0 41 29 84l59 94q-61 113 -61 266q0 215 108 393q127 209 328 209q96 0 176 -47l80 119q35 53 76 53q65 0 65 -84q0 -45 -28 -88l-76 -115q74 -115 86 -278q4 -231 -111 -412q-135 -197 -338 -196q-104 0 -188 55l-55 -86q-37 -53 -80 -53q-33 0 -51.5 26.5 t-18.5 59.5zM317 319l283 441q-115 33 -205 -71.5t-78 -369.5zM424 199q166 -66 243.5 96t22.5 328z" />
<glyph unicode="&#xf9;" horiz-adv-x="1103" d="M135 379q0 203 117 483q31 74 104 74q49 0 86 -33t37 -82q0 -25 -10 -49q-98 -238 -98 -393q0 -39 8 -66q29 -94 96 -94q78 0 168 109q-4 35 -4 73q0 152 88 449q25 84 109 84q51 0 86.5 -32t35.5 -83q0 -18 -6 -39q-80 -260 -80 -366q0 -154 99 -232q45 -37 45 -90 q0 -49 -35 -86t-84 -37q-76 0 -166 125q-131 -104 -274 -104q-225 0 -303 254q-18 59 -19 135zM327 1310q0 43 34 76t75 33q100 0 229 -131q123 -125 123 -203q0 -41 -63 -37q-137 12 -283 119q-115 84 -115 143z" />
<glyph unicode="&#xfa;" horiz-adv-x="1103" d="M147 379q0 203 117 483q31 74 104 74q49 0 86 -33t37 -82q0 -25 -10 -49q-98 -238 -98 -393q0 -39 8 -66q29 -94 96 -94q78 0 168 109q-4 35 -4 73q0 152 88 449q25 84 109 84q51 0 86.5 -32t35.5 -83q0 -18 -6 -39q-80 -260 -80 -366q0 -154 99 -232q45 -37 45 -90 q0 -49 -35 -86t-84 -37q-76 0 -166 125q-131 -104 -274 -104q-225 0 -303 254q-18 59 -19 135zM495 1067q0 88 132.5 211t222.5 123q42 0 71 -33q39 -43 39 -78q0 -53 -106 -129q-158 -117 -277 -131q-82 -10 -82 37z" />
<glyph unicode="&#xfb;" horiz-adv-x="1103" d="M82 379q0 203 117 483q31 74 104 74q49 0 86 -33t37 -82q0 -25 -10 -49q-98 -238 -99 -393q0 -39 9 -66q29 -94 96 -94q78 0 168 109q-4 35 -4 73q0 152 88 449q25 84 108 84q49 0 86 -32t37 -83q0 -18 -6 -39q-80 -260 -80 -366q0 -154 99 -232q45 -37 45 -90 q0 -49 -36 -86t-83 -37q-76 0 -166 125q-131 -104 -275 -104q-225 0 -303 254q-18 59 -18 135zM223 1137q0 27 27 49q135 119 196 160q78 53 134 53q57 0 131 -56q51 -39 176 -159q24 -24 24 -49q0 -37 -42 -59.5t-81 -22.5q-53 0 -90 37l-125 124l-141 -129 q-37 -33 -88 -32q-41 0 -78 22q-43 25 -43 62z" />
<glyph unicode="&#xfc;" horiz-adv-x="1103" d="M47 379q0 203 117 483q31 74 104 74q49 0 86 -33t37 -82q0 -25 -10 -49q-98 -238 -98 -393q0 -39 8 -66q29 -94 96 -94q78 0 168 109q-4 35 -4 73q0 152 88 449q25 84 109 84q51 0 86.5 -32t35.5 -83q0 -18 -6 -39q-80 -260 -80 -366q0 -154 99 -232q45 -37 45 -90 q0 -49 -35 -86t-84 -37q-76 0 -166 125q-131 -104 -274 -104q-225 0 -303 254q-18 59 -19 135zM246 1202q0 55 55 97t113 42q53 0 85.5 -36t32.5 -91t-55 -96t-112 -41q-119 0 -119 125zM641 1208q0 55 55.5 96.5t110.5 41.5q57 0 94 -35t37 -90q0 -53 -62.5 -96.5 t-119.5 -43.5q-115 0 -115 127z" />
<glyph unicode="&#xff;" horiz-adv-x="1150" d="M172 758q0 49 36 80.5t85 31.5q90 0 113 -90q33 -135 83 -210.5t160 -163.5q104 287 152 518q18 94 112 94q51 0 86 -31t35 -82q0 -16 -2 -26q-55 -287 -213 -689q-123 -313 -244 -548q-33 -63 -100 -64q-49 0 -87 33t-38 82q0 25 17 57q88 170 194 428 q-172 127 -246 225q-90 121 -139 322q-4 16 -4 33zM221 1114q0 55 58 98q51 39 108 39t90 -36t33 -93q0 -53 -57.5 -94t-114.5 -41q-117 0 -117 127zM647 1204q0 55 54.5 96t111.5 41q55 0 93 -34.5t38 -89.5q0 -53 -62.5 -96.5t-119.5 -43.5q-115 0 -115 127z" />
<glyph unicode="&#x152;" horiz-adv-x="1662" d="M127 528q0 252 109 478q154 317 450 317q123 0 207 -70q39 4 88 4q262 0 463 -55q94 -27 94 -117q0 -49 -30.5 -82.5t-80.5 -33.5q-10 0 -149 37q-94 25 -176 24q-39 0 -76 -6q33 -115 33 -252q0 -16 -2 -35q225 57 262 80q31 18 61 19q49 0 82 -38t33 -87q0 -61 -59 -99 q-90 -53 -406 -127l4 -256q47 -10 96 -10q162 0 269 98q37 33 76 33q47 0 82.5 -38t35.5 -85q0 -51 -41 -88q-172 -158 -419 -157q-137 0 -261 51q-31 12 -49 35q-111 -113 -254 -113q-240 0 -358 225q-84 158 -84 348zM387 557q0 -328 123 -354q18 -4 31 -4q102 0 178 161 q90 195 90 457q0 221 -90 240q-20 4 -43 4q-147 0 -230 -205q-59 -150 -59 -299z" />
<glyph unicode="&#x153;" horiz-adv-x="1568" d="M113 389q0 215 108 393q127 209 328 209q37 0 76 -8q170 -37 243 -203q90 111 228 170q90 39 174 39q111 0 180.5 -69.5t69.5 -180.5q0 -211 -220 -344q-109 -66 -213 -94q-47 -12 -86 8q31 -121 127 -121q78 0 170 82q37 33 78 33q49 0 84 -37t35 -86t-41 -86 q-164 -145 -324 -145q-205 0 -317 217q-129 -223 -334 -223q-37 0 -76 8q-147 31 -223 162q-68 115 -67 276zM346 399q0 -61 25 -127q31 -80 82 -90t112 45q78 70 107 207q10 50 10 103q0 61 -25 127q-31 80 -82 90q-76 16 -145 -86q-55 -80 -74 -166q-10 -49 -10 -103z M995 516q12 8 31 12q82 23 154 68q100 63 100 133q0 18 -6 37q-12 0 -84 -31q-168 -72 -195 -219z" />
<glyph unicode="&#x178;" horiz-adv-x="1150" d="M121 1124q0 51 34.5 82t86.5 31q94 0 112 -92q27 -129 66 -195q45 -76 145 -143q221 285 281 401q35 68 100 68q49 0 87 -34t38 -83q0 -27 -14 -55q-80 -160 -357 -506l-2 -547q0 -53 -32.5 -86t-85.5 -33q-51 0 -84 34t-33 85l2 539q-100 63 -150 112q-72 74 -131 197 q-63 133 -63 225zM225 1403q0 55 55.5 97t112.5 42q55 0 88 -37t33 -92t-56.5 -96t-113.5 -41q-119 0 -119 127zM610 1399q0 55 53.5 96t110.5 41t95 -35t38 -90q0 -53 -62.5 -96t-119.5 -43q-115 0 -115 127z" />
<glyph unicode="&#x2c6;" horiz-adv-x="927" d="M193 1143q0 29 24 53q125 123 180 166q72 55 125 55q51 0 119 -57q51 -43 164 -168q22 -24 22 -49q0 -37 -36.5 -61.5t-75.5 -24.5q-51 0 -84 37l-117 133l-129 -135q-33 -35 -82 -35q-39 0 -74.5 23.5t-35.5 62.5z" />
<glyph unicode="&#x2dc;" horiz-adv-x="980" d="M76 1194q0 39 43 66q74 49 147 98q68 43 113 43q55 0 132 -57.5t95 -57.5q37 0 98.5 54.5t104.5 54.5q37 0 68.5 -23.5t31.5 -58.5q0 -31 -32 -62q-160 -147 -254 -147q-49 0 -136.5 57.5t-117.5 57.5q-45 0 -99.5 -54.5t-74.5 -58.5q-39 -6 -79 20.5t-40 67.5z" />
<glyph unicode="&#x2000;" horiz-adv-x="866" />
<glyph unicode="&#x2001;" horiz-adv-x="1733" />
<glyph unicode="&#x2002;" horiz-adv-x="866" />
<glyph unicode="&#x2003;" horiz-adv-x="1733" />
<glyph unicode="&#x2004;" horiz-adv-x="577" />
<glyph unicode="&#x2005;" horiz-adv-x="433" />
<glyph unicode="&#x2006;" horiz-adv-x="288" />
<glyph unicode="&#x2007;" horiz-adv-x="288" />
<glyph unicode="&#x2008;" horiz-adv-x="216" />
<glyph unicode="&#x2009;" horiz-adv-x="346" />
<glyph unicode="&#x200a;" horiz-adv-x="96" />
<glyph unicode="&#x2010;" horiz-adv-x="948" d="M131 551q0 51 33 85t84 34h461q51 0 83.5 -34t32.5 -85t-32.5 -84t-83.5 -33h-461q-51 0 -84 33t-33 84z" />
<glyph unicode="&#x2011;" horiz-adv-x="948" d="M131 551q0 51 33 85t84 34h461q51 0 83.5 -34t32.5 -85t-32.5 -84t-83.5 -33h-461q-51 0 -84 33t-33 84z" />
<glyph unicode="&#x2012;" horiz-adv-x="948" d="M131 551q0 51 33 85t84 34h461q51 0 83.5 -34t32.5 -85t-32.5 -84t-83.5 -33h-461q-51 0 -84 33t-33 84z" />
<glyph unicode="&#x2013;" horiz-adv-x="1120" d="M139 700q0 53 33 85t86 32h625q51 0 83.5 -33t32.5 -84q0 -53 -31.5 -85.5t-84.5 -32.5h-625q-53 0 -86 32.5t-33 85.5z" />
<glyph unicode="&#x2014;" horiz-adv-x="1599" d="M133 700q0 53 33 85t86 32h1096q51 0 83.5 -33t32.5 -84q0 -53 -31.5 -85.5t-84.5 -32.5h-1096q-53 0 -86 32.5t-33 85.5z" />
<glyph unicode="&#x2018;" horiz-adv-x="608" d="M160 1141q0 98 69.5 200.5t161.5 126.5q39 10 51 11q23 -1 23 -17q0 -12 -29 -76q-33 -70 -37 -90q-16 -66 9 -116q49 -33 49 -95q0 -57 -40 -99t-98 -42q-18 0 -38 6q-121 35 -121 191z" />
<glyph unicode="&#x2019;" horiz-adv-x="577" d="M164 934q0 12 30.5 77.5t34.5 88.5q14 63 -8 117q-49 33 -49 94q0 57 40 99t97 42q18 0 39 -6q121 -35 121 -191q0 -98 -68 -198q-72 -106 -163 -131q-31 -8 -52 -8q-23 0 -22 16z" />
<glyph unicode="&#x201a;" horiz-adv-x="575" d="M129 -256q0 12 30.5 78.5t35.5 87.5q14 63 -9 117q-49 33 -49 94q0 55 40 98t95 43q20 0 41 -6q121 -34 121 -190q0 -98 -70.5 -201t-160.5 -127q-39 -10 -51 -10q-23 0 -23 16z" />
<glyph unicode="&#x201c;" horiz-adv-x="991" d="M190 1141q0 98 70 200.5t162 126.5q39 10 51 11q23 -1 23 -17q0 -12 -29 -76q-33 -70 -37 -90q-16 -66 8 -116q49 -33 49 -95q0 -57 -39.5 -99t-97.5 -42q-18 0 -39 6q-121 35 -121 191zM541 1036q0 96 71.5 199.5t161.5 128.5q31 8 51 8q23 0 23 -14q0 -10 -32 -78 t-36 -88q-14 -63 11 -119q49 -33 49 -92q0 -57 -40 -99t-98 -42q-18 0 -40 6q-121 33 -121 190z" />
<glyph unicode="&#x201d;" horiz-adv-x="991" d="M180 973q0 12 31 78.5t35 87.5q14 63 -8 118q-51 33 -52 93q0 55 41 98t97 43q20 0 41 -6q120 -35 120 -191q0 -98 -70.5 -199.5t-162.5 -127.5q-37 -10 -49 -11q-23 0 -23 17zM532 866q0 14 31 81t35 87q14 63 -8 117q-51 33 -51 94q0 55 41 98t96 43q20 0 41 -6 q121 -34 121 -190q0 -98 -71 -201.5t-163 -128.5q-31 -8 -51 -8t-21 14z" />
<glyph unicode="&#x201e;" horiz-adv-x="1003" d="M203 -209q0 12 30.5 77.5t34.5 88.5q14 66 -8 117q-49 33 -49 94q0 57 40 99t97 42q18 0 39 -6q121 -34 121 -190q0 -98 -69.5 -200.5t-162.5 -127.5q-39 -10 -51 -10q-23 0 -22 16zM606 -158q0 12 31 79t35 89q14 63 -8 117q-49 33 -50 92q0 57 40 99t98 42q25 0 39 -4 q120 -32 120 -192q0 -96 -70.5 -199.5t-160.5 -128.5q-31 -8 -51 -8q-23 0 -23 14z" />
<glyph unicode="&#x2022;" horiz-adv-x="1148" d="M166 522q0 174 126 296t306 122q178 0 304 -122t126 -296t-126 -296t-304 -122q-180 0 -306 122t-126 296z" />
<glyph unicode="&#x202f;" horiz-adv-x="346" />
<glyph unicode="&#x2039;" horiz-adv-x="925" d="M160 537q0 57 104.5 140t313.5 247q37 29 73 28q49 0 84 -36.5t35 -86.5q0 -55 -45 -90l-246 -194l289 -205q49 -35 49 -94q0 -47 -34.5 -85t-82.5 -38q-37 0 -71 24q-117 82 -350 248q-119 84 -119 142z" />
<glyph unicode="&#x203a;" horiz-adv-x="925" d="M211 246q0 59 49 94l289 205l-246 194q-45 35 -45 90q0 49 35 86t84 37q37 0 74 -28q104 -82 313 -246q104 -84 104 -141t-118.5 -140.5t-352.5 -249.5q-35 -25 -69 -24q-49 0 -83 38t-34 85z" />
<glyph unicode="&#x205f;" horiz-adv-x="433" />
<glyph unicode="&#x20ac;" horiz-adv-x="1470" d="M199 477q0 90 114 90h107q0 47 4 90h-41q-49 0 -82 23q-39 27 -39 74q0 90 115 90h88q80 227 289 360q168 106 290 107q152 0 252 -201q15 -28 15 -57q0 -49 -37 -82t-86 -33q-68 0 -101 66q-23 45 -43 65q-209 -33 -313 -225h189q47 0 83.5 -25.5t36.5 -70.5 q0 -90 -114 -91h-258q-8 -43 -11 -90h199q47 0 84 -24.5t37 -69.5q0 -90 -115 -90h-190q45 -199 162 -188q133 10 237 182q35 57 96 57q49 0 86 -33.5t37 -83.5q0 -33 -18 -63q-182 -297 -428 -297q-164 0 -279 135q-98 117 -131 291h-115q-47 0 -83.5 24.5t-36.5 69.5z" />
<glyph unicode="&#x25fc;" horiz-adv-x="983" d="M0 0v983h983v-983h-983z" />
</font>
</defs>
</svg>
